<svg width="16" height="14" viewBox="0 0 16 14" fill="none" xmlns="http://www.w3.org/2000/svg">
<path fill-rule="evenodd" clip-rule="evenodd" d="M0.5 7.00003C0.5 6.75138 0.598772 6.51293 0.774588 6.33711C0.950403 6.1613 1.18886 6.06253 1.4375 6.06253H12.2994L8.27375 2.03878C8.09771 1.86274 7.99882 1.62398 7.99882 1.37503C7.99882 1.12607 8.09771 0.887312 8.27375 0.711275C8.44979 0.535237 8.68855 0.43634 8.9375 0.43634C9.18645 0.43634 9.42521 0.535237 9.60125 0.711275L15.2262 6.33628C15.3136 6.42336 15.3828 6.52681 15.4301 6.64071C15.4773 6.75461 15.5017 6.87671 15.5017 7.00003C15.5017 7.12334 15.4773 7.24544 15.4301 7.35934C15.3828 7.47323 15.3136 7.57669 15.2262 7.66378L9.60125 13.2888C9.42521 13.4648 9.18645 13.5637 8.9375 13.5637C8.68855 13.5637 8.44979 13.4648 8.27375 13.2888C8.09771 13.1127 7.99882 12.874 7.99882 12.625C7.99882 12.3761 8.09771 12.1373 8.27375 11.9613L12.2994 7.93753H1.4375C1.18886 7.93753 0.950403 7.83875 0.774588 7.66294C0.598772 7.48712 0.5 7.24867 0.5 7.00003Z" fill="#435072"/>
</svg>
