<svg width="36" height="36" viewBox="0 0 36 36" fill="none" xmlns="http://www.w3.org/2000/svg">
<path d="M18 31.5C16.1054 29.8839 14.3493 28.1123 12.75 26.2035C10.35 23.337 7.5 19.068 7.5 15C7.49896 12.9224 8.11426 10.8913 9.26804 9.16354C10.4218 7.43581 12.0622 6.08919 13.9816 5.2941C15.901 4.49901 18.0131 4.29119 20.0507 4.69694C22.0882 5.10269 23.9596 6.10378 25.428 7.5735C26.4056 8.54679 27.1805 9.70431 27.7078 10.9791C28.2351 12.2538 28.5044 13.6205 28.5 15C28.5 19.068 25.65 23.337 23.25 26.2035C21.6507 28.1123 19.8946 29.8839 18 31.5ZM18 10.5C16.8065 10.5 15.6619 10.9741 14.818 11.818C13.9741 12.6619 13.5 13.8065 13.5 15C13.5 16.1935 13.9741 17.3381 14.818 18.182C15.6619 19.0259 16.8065 19.5 18 19.5C19.1935 19.5 20.3381 19.0259 21.182 18.182C22.0259 17.3381 22.5 16.1935 22.5 15C22.5 13.8065 22.0259 12.6619 21.182 11.818C20.3381 10.9741 19.1935 10.5 18 10.5Z" fill="white"/>
</svg>
