<svg width="36" height="36" viewBox="0 0 36 36" fill="none" xmlns="http://www.w3.org/2000/svg">
<path d="M11.6581 3.6585L13.2721 3.1425C14.7871 2.6595 16.4026 3.441 17.0521 4.968L18.3406 8.01001C18.9016 9.33451 18.5911 10.893 17.5696 11.862L14.7286 14.559C14.9026 16.173 15.4456 17.7615 16.3546 19.3245C17.2182 20.8368 18.3766 22.1605 19.7611 23.217L23.1736 22.077C24.4681 21.6465 25.8766 22.143 26.6686 23.3085L28.5181 26.0235C29.4406 27.3795 29.2756 29.2485 28.1311 30.3975L26.9041 31.629C25.6831 32.8545 23.9386 33.3 22.3261 32.796C18.5176 31.608 15.0166 28.0815 11.8216 22.2165C8.62207 16.3425 7.49257 11.3565 8.43457 7.2645C8.83057 5.5425 10.0561 4.17 11.6581 3.6585Z" fill="white"/>
</svg>
