<svg width="164" height="59" viewBox="0 0 164 59" fill="none" xmlns="http://www.w3.org/2000/svg">
<g opacity="0.15" clip-path="url(#clip0_192_224)">
<path d="M146.689 14.5231H164V31.7692H159.444V22.3165L142.667 39.0308L139.4 35.7758L156.177 19.0615H146.689V14.5231Z" fill="#435072"/>
<path d="M-0.204102 39.0308L8.16354 18.6985H13.9072L22.1582 39.0308H16.7353L14.8693 34.122H6.90985L5.01474 39.0308H-0.204102ZM8.42594 30.1427H13.3824L10.9333 23.6363L8.42594 30.1427ZM27.447 23.6654V32.4954C27.447 33.328 27.6997 34.0058 28.2051 34.5286C28.7299 35.0321 29.4101 35.2838 30.246 35.2838C30.8485 35.2838 31.383 35.1774 31.8495 34.9643C32.316 34.7513 32.7047 34.4512 33.0157 34.0639V23.6654H37.7389V39.0308H33.0157V37.9851C32.452 38.4111 31.8106 38.7403 31.0915 38.9727C30.3917 39.2051 29.6531 39.3213 28.8756 39.3213C27.068 39.3213 25.5907 38.7403 24.444 37.5785C23.2972 36.4166 22.7238 34.9353 22.7238 33.1344V23.6654H27.447ZM42.8506 34.3544V27.5866H39.7311V23.6654H42.8506V19.7151L47.5739 18.6985V23.6654H51.8889V27.5866H47.5739V33.4249C47.5739 34.1027 47.7197 34.5867 48.0113 34.8772C48.3222 35.1483 48.8568 35.2838 49.6148 35.2838C49.9841 35.2838 50.334 35.2645 50.6644 35.2257C50.9948 35.1677 51.3544 35.0805 51.7432 34.9643V38.7694C51.3155 38.9049 50.7713 39.0115 50.1105 39.0889C49.4495 39.1857 48.8956 39.2341 48.4486 39.2341C46.602 39.2341 45.2026 38.8275 44.2502 38.0142C43.3172 37.1816 42.8506 35.9616 42.8506 34.3544ZM53.033 31.3626C53.033 30.2589 53.2469 29.2229 53.6744 28.2547C54.1215 27.2671 54.7143 26.4151 55.4529 25.6986C56.211 24.9822 57.0954 24.4206 58.1061 24.0139C59.1363 23.588 60.2344 23.3749 61.4007 23.3749C62.5669 23.3749 63.6554 23.588 64.6661 24.0139C65.6963 24.4206 66.5806 24.9822 67.3193 25.6986C68.0773 26.4151 68.6702 27.2671 69.0977 28.2547C69.5448 29.2229 69.7683 30.2589 69.7683 31.3626C69.7683 32.4664 69.5448 33.512 69.0977 34.4996C68.6702 35.4678 68.0773 36.3102 67.3193 37.0266C66.5806 37.7431 65.6963 38.3046 64.6661 38.7113C63.6554 39.1179 62.5669 39.3213 61.4007 39.3213C60.2344 39.3213 59.1363 39.1179 58.1061 38.7113C57.0954 38.3046 56.211 37.7431 55.4529 37.0266C54.7143 36.3102 54.1215 35.4678 53.6744 34.4996C53.2469 33.512 53.033 32.4664 53.033 31.3626ZM61.4007 35.2548C62.4503 35.2548 63.3347 34.8772 64.0538 34.122C64.7925 33.3668 65.1617 32.447 65.1617 31.3626C65.1617 30.2589 64.7925 29.3294 64.0538 28.5742C63.3347 27.819 62.4503 27.4414 61.4007 27.4414C60.3511 27.4414 59.457 27.819 58.7184 28.5742C57.9992 29.3294 57.6396 30.2589 57.6396 31.3626C57.6396 32.447 57.9992 33.3668 58.7184 34.122C59.457 34.8772 60.3511 35.2548 61.4007 35.2548ZM71.0505 23.1135V18.6985H89.4185V23.1135H82.7419V39.0308H77.7271V23.1135H71.0505ZM90.2341 39.0308V23.6654H94.9578V25.2048C95.4626 24.6046 96.0557 24.1398 96.7363 23.8106C97.416 23.4814 98.174 23.3168 99.0104 23.3168C99.4569 23.3362 99.8168 23.3749 100.089 23.433C100.361 23.4718 100.594 23.5589 100.789 23.6944V27.7899C100.477 27.6544 100.127 27.5479 99.7393 27.4704C99.3503 27.3736 98.9521 27.3252 98.5439 27.3252C97.805 27.3252 97.1153 27.4995 96.473 27.848C95.8516 28.1966 95.3459 28.671 94.9578 29.2713V39.0308H90.2341ZM101.55 31.3626C101.55 30.2589 101.764 29.2229 102.191 28.2547C102.638 27.2671 103.231 26.4151 103.97 25.6986C104.728 24.9822 105.612 24.4206 106.623 24.0139C107.653 23.588 108.751 23.3749 109.917 23.3749C111.084 23.3749 112.172 23.588 113.183 24.0139C114.213 24.4206 115.097 24.9822 115.836 25.6986C116.594 26.4151 117.187 27.2671 117.614 28.2547C118.062 29.2229 118.285 30.2589 118.285 31.3626C118.285 32.4664 118.062 33.512 117.614 34.4996C117.187 35.4678 116.594 36.3102 115.836 37.0266C115.097 37.7431 114.213 38.3046 113.183 38.7113C112.172 39.1179 111.084 39.3213 109.917 39.3213C108.751 39.3213 107.653 39.1179 106.623 38.7113C105.612 38.3046 104.728 37.7431 103.97 37.0266C103.231 36.3102 102.638 35.4678 102.191 34.4996C101.764 33.512 101.55 32.4664 101.55 31.3626ZM109.917 35.2548C110.967 35.2548 111.852 34.8772 112.57 34.122C113.309 33.3668 113.678 32.447 113.678 31.3626C113.678 30.2589 113.309 29.3294 112.57 28.5742C111.852 27.819 110.967 27.4414 109.917 27.4414C108.868 27.4414 107.974 27.819 107.235 28.5742C106.516 29.3294 106.156 30.2589 106.156 31.3626C106.156 32.447 106.516 33.3668 107.235 34.122C107.974 34.8772 108.868 35.2548 109.917 35.2548ZM117.444 39.0308L123.305 31.2464L117.531 23.6654H123.014L126.046 27.7899L129.049 23.6654H134.326L128.641 31.1883L134.647 39.0308H129.165L125.929 34.6448L122.722 39.0308H117.444Z" fill="#435072"/>
</g>
<defs>
<clipPath id="clip0_192_224">
<rect width="164" height="59" fill="white"/>
</clipPath>
</defs>
</svg>
