<svg width="133" height="59" viewBox="0 0 133 59" fill="none" xmlns="http://www.w3.org/2000/svg">
<g opacity="0.15">
<path fill-rule="evenodd" clip-rule="evenodd" d="M38.4812 21.6149C37.3575 20.148 35.8777 18.9956 34.0417 18.1576C31.9099 17.1501 29.4426 16.6464 26.6401 16.6464H14.2441V41.2472H26.6401C29.4426 41.2472 31.9099 40.7552 34.0417 39.7712C35.8773 38.9134 37.357 37.7498 38.4805 36.2805C35.5519 43.6246 28.3551 48.8167 19.9413 48.8167C8.92806 48.8167 0 39.9207 0 28.9467C0 17.9729 8.92806 9.0769 19.9413 9.0769C28.3559 9.0769 35.5531 14.2698 38.4812 21.6149ZM30.6283 33.2695C29.5504 34.277 28.1013 34.7808 26.2808 34.7808H22.7237V23.1129H26.2808C28.1013 23.1129 29.5504 23.6284 30.6283 24.6593C31.7302 25.6667 32.2811 27.0959 32.2811 28.9468C32.2811 30.7977 31.7302 32.2387 30.6283 33.2695Z" fill="#435072"/>
<path d="M59.7869 33.4696C59.7869 33.5642 59.7584 34.0657 59.7014 34.974H48.8761C49.104 35.5606 49.4838 36.0149 50.0156 36.3365C50.5473 36.6394 51.2121 36.7908 52.0097 36.7908C52.6935 36.7908 53.2632 36.7055 53.719 36.5352C54.1938 36.365 54.7066 36.0716 55.2574 35.6553L58.6189 39.0332C57.0995 40.6985 54.83 41.5311 51.8103 41.5311C49.9302 41.5311 48.2779 41.1904 46.8535 40.5092C45.4291 39.809 44.3276 38.844 43.5489 37.6138C42.7702 36.3838 42.3809 35.0024 42.3809 33.4696C42.3809 31.9179 42.7607 30.5364 43.5204 29.3253C44.2991 28.0952 45.3531 27.1396 46.6825 26.4584C48.031 25.7771 49.5408 25.4365 51.2121 25.4365C52.7884 25.4365 54.2223 25.7488 55.5137 26.3733C56.8241 26.9977 57.8592 27.9155 58.6189 29.1267C59.3976 30.3377 59.7869 31.7854 59.7869 33.4696ZM51.2691 29.8079C50.6044 29.8079 50.0536 29.9876 49.6168 30.3472C49.18 30.7068 48.895 31.2177 48.7621 31.88H53.776C53.643 31.2366 53.3582 30.7352 52.9214 30.3755C52.4845 29.9971 51.9338 29.8079 51.2691 29.8079Z" fill="#435072"/>
<path d="M67.8112 25.4365C70.546 25.4365 72.6351 26.0515 74.0784 27.2816C75.5218 28.4926 76.2435 30.3661 76.2435 32.9019V41.2472H70.2611V39.2035C69.5204 40.7552 68.0486 41.5311 65.8455 41.5311C64.611 41.5311 63.557 41.323 62.6834 40.9066C61.8288 40.4714 61.1735 39.8942 60.7178 39.1751C60.2809 38.437 60.0625 37.6139 60.0625 36.7055C60.0625 35.1727 60.6513 34.009 61.8288 33.2142C63.0063 32.4193 64.7915 32.0219 67.1845 32.0219H69.7768C69.5679 30.8108 68.5898 30.2053 66.8426 30.2053C66.1399 30.2053 65.4277 30.3188 64.706 30.5459C63.9844 30.7541 63.3671 31.0473 62.8543 31.4258L60.8032 27.1964C61.6959 26.6477 62.7689 26.2219 64.0223 25.9191C65.2948 25.5974 66.5577 25.4365 67.8112 25.4365ZM67.7827 37.6707C68.2384 37.6707 68.6468 37.5477 69.0077 37.3017C69.3685 37.0556 69.6344 36.6866 69.8053 36.1946V35.116H68.21C66.8995 35.116 66.2444 35.5512 66.2444 36.4217C66.2444 36.7812 66.3773 37.084 66.6432 37.33C66.928 37.5571 67.3079 37.6707 67.7827 37.6707Z" fill="#435072"/>
<path d="M78.4561 20.1852H84.8943V41.2473H78.4561V20.1852Z" fill="#435072"/>
<path d="M95.411 41.5311C93.6829 41.5311 92.1252 41.1904 90.7391 40.5092C89.3717 39.809 88.2987 38.8534 87.52 37.6423C86.7414 36.4122 86.3521 35.0214 86.3521 33.4696C86.3521 31.9179 86.7414 30.5364 87.52 29.3253C88.2987 28.0952 89.3717 27.1396 90.7391 26.4584C92.1252 25.7771 93.6829 25.4365 95.411 25.4365C97.1582 25.4365 98.7159 25.7771 100.083 26.4584C101.47 27.1396 102.543 28.0952 103.303 29.3253C104.081 30.5364 104.47 31.9179 104.47 33.4696C104.47 35.0214 104.081 36.4122 103.303 37.6423C102.543 38.8534 101.47 39.809 100.083 40.5092C98.7159 41.1904 97.1582 41.5311 95.411 41.5311ZM95.411 36.5352C96.1516 36.5352 96.7592 36.2703 97.2347 35.7405C97.7093 35.1917 97.9462 34.4347 97.9462 33.4696C97.9462 32.5044 97.7093 31.757 97.2347 31.2271C96.7592 30.6973 96.1516 30.4324 95.411 30.4324C94.6704 30.4324 94.0628 30.6973 93.5882 31.2271C93.1136 31.757 92.8758 32.5044 92.8758 33.4696C92.8758 34.4347 93.1136 35.1917 93.5882 35.7405C94.0628 36.2703 94.6704 36.5352 95.411 36.5352Z" fill="#435072"/>
<path d="M126.541 25.4365C128.421 25.4365 129.921 26.0136 131.042 27.168C132.181 28.3224 132.751 30.0633 132.751 32.391V41.2473H126.313V33.498C126.313 31.7192 125.733 30.8298 124.576 30.8298C123.967 30.8298 123.473 31.0569 123.093 31.511C122.733 31.9652 122.552 32.6843 122.552 33.6683V41.2473H116.115V33.498C116.115 31.7192 115.535 30.8298 114.377 30.8298C113.769 30.8298 113.275 31.0569 112.895 31.511C112.535 31.9652 112.354 32.6843 112.354 33.6683V41.2473H105.916V25.7204H112.041V27.168C113.2 26.0136 114.671 25.4365 116.456 25.4365C117.501 25.4365 118.441 25.6352 119.277 26.0326C120.112 26.4111 120.796 26.9977 121.328 27.7925C121.955 27.0355 122.714 26.4584 123.606 26.061C124.499 25.6447 125.477 25.4365 126.541 25.4365Z" fill="#435072"/>
</g>
</svg>
