<svg width="126" height="59" viewBox="0 0 126 59" fill="none" xmlns="http://www.w3.org/2000/svg">
<g opacity="0.15">
<path d="M48.9404 40.3931L51.1014 39.8941V22.6244L48.9961 22.3472V20.476H53.1787C53.6156 20.476 54.0385 20.4668 54.4475 20.4484C54.8657 20.4298 55.2793 20.4068 55.6883 20.379C56.0972 20.3513 56.5108 20.3282 56.9291 20.3098C57.3473 20.2912 57.7795 20.282 58.2256 20.282C60.0939 20.282 61.6972 20.5315 63.0356 21.0305C64.3833 21.5202 65.494 22.2178 66.3677 23.1233C67.2414 24.0288 67.8827 25.1192 68.2917 26.3943C68.7099 27.6694 68.919 29.0831 68.919 30.6355C68.919 32.4559 68.6403 34.0821 68.0826 35.5143C67.5249 36.9372 66.7488 38.1431 65.7542 39.1318C64.769 40.1205 63.5979 40.8735 62.2409 41.391C60.8839 41.9084 59.4014 42.1579 57.7935 42.1394C57.4495 42.1394 57.0824 42.1302 56.6921 42.1117C56.311 42.0932 55.9206 42.0748 55.5209 42.0562C55.1306 42.0378 54.7402 42.0193 54.3498 42.0008C53.9594 41.9916 53.5876 41.987 53.2345 41.987C52.5188 41.987 51.8031 41.9916 51.0874 42.0008C50.3717 42.0008 49.6561 42.0008 48.9404 42.0008V40.3931ZM55.1166 39.7971C55.9996 40.1851 57.18 40.3284 58.6579 40.2267C59.4944 40.1805 60.2798 39.9541 61.0141 39.5476C61.7483 39.141 62.3897 38.5682 62.938 37.8289C63.4957 37.0805 63.9325 36.1796 64.2485 35.1262C64.5645 34.0636 64.7226 32.8578 64.7226 31.5087C64.7226 29.9379 64.5645 28.5704 64.2485 27.4061C63.9418 26.2419 63.4864 25.2763 62.8822 24.5094C62.2874 23.7332 61.5485 23.1556 60.6655 22.7769C59.7918 22.398 58.7926 22.2086 57.668 22.2086C57.101 22.2178 56.6084 22.2548 56.1902 22.3195C55.7719 22.3748 55.4141 22.4535 55.1166 22.5551V39.7971Z" fill="#435072"/>
<path d="M71.1641 34.4886C71.1641 33.3059 71.3545 32.2017 71.7356 31.1761C72.1167 30.1504 72.6604 29.2634 73.3669 28.5149C74.0825 27.7573 74.9422 27.1613 75.946 26.7269C76.9591 26.2835 78.0931 26.0571 79.3479 26.0478C80.3424 26.0386 81.2115 26.1725 81.955 26.4497C82.6985 26.7177 83.3167 27.1058 83.8093 27.614C84.3112 28.113 84.6923 28.7228 84.9525 29.4436C85.2128 30.155 85.3614 30.9497 85.3986 31.8275C85.4172 32.4096 85.4032 32.9224 85.3568 33.366C85.3103 33.8002 85.2638 34.1975 85.2173 34.558H75.2211C75.2211 34.5857 75.2211 34.6133 75.2211 34.6411C75.2304 34.6595 75.235 34.6781 75.235 34.6965C75.2908 35.6483 75.4488 36.4568 75.7091 37.122C75.9786 37.7874 76.3271 38.3325 76.7547 38.7576C77.1915 39.1733 77.6934 39.4783 78.2604 39.6723C78.8274 39.8663 79.4315 39.9634 80.0728 39.9634C80.4167 39.9634 80.7792 39.9449 81.1603 39.9079C81.5507 39.871 81.9318 39.8155 82.3036 39.7416C82.6847 39.6677 83.0518 39.5753 83.405 39.4644C83.7581 39.3535 84.0834 39.2242 84.3809 39.0764L85.0222 40.5733C84.7062 40.8412 84.3112 41.0906 83.8371 41.3216C83.3631 41.5434 82.8473 41.7328 82.2896 41.8899C81.7319 42.047 81.1417 42.1672 80.519 42.2503C79.9055 42.3335 79.2921 42.3704 78.6787 42.3612C77.4797 42.352 76.4108 42.1625 75.4721 41.7929C74.5426 41.4233 73.7572 40.9013 73.1159 40.2267C72.4746 39.5522 71.9866 38.7344 71.652 37.7735C71.3267 36.8032 71.1641 35.7083 71.1641 34.4886ZM81.4392 32.5898C81.467 32.1924 81.4857 31.7813 81.4949 31.3563C81.5042 30.9219 81.4763 30.5061 81.4112 30.1088C81.3555 29.7115 81.244 29.3465 81.0767 29.0139C80.9187 28.6812 80.6816 28.4086 80.3656 28.1961C80.1704 28.0668 79.9427 27.9651 79.6825 27.8912C79.4223 27.8173 79.1248 27.7803 78.7902 27.7803C78.2418 27.7803 77.7585 27.905 77.3403 28.1546C76.9313 28.404 76.5828 28.7459 76.2946 29.1802C76.0065 29.6145 75.7741 30.1273 75.5975 30.7187C75.4303 31.3008 75.3187 31.9245 75.2629 32.5898H81.4392Z" fill="#435072"/>
<path d="M87.8802 40.4207L89.8461 40.0743V22.361L87.8105 21.6957V20.0741L93.1087 19.4365L93.8053 19.7137V40.0604L96.2733 40.4207V42.0008H87.8802V40.4207Z" fill="#435072"/>
<path d="M99.7447 28.6535H97.6255V27.3091C97.9414 27.2444 98.2254 27.1843 98.4765 27.1289C98.7367 27.0642 98.964 26.9949 99.1594 26.921C99.3639 26.8379 99.5447 26.7408 99.7027 26.6299C99.8707 26.5191 100.019 26.3712 100.149 26.1864C100.261 26.0478 100.376 25.8537 100.498 25.6043C100.628 25.3548 100.754 25.0776 100.874 24.7727C101.004 24.4678 101.125 24.1444 101.237 23.8025C101.357 23.4606 101.464 23.1233 101.557 22.7906H103.481V26.4913H108.208V28.6535H103.607V34.5441C103.607 35.7083 103.625 36.6416 103.663 37.3438C103.709 38.0461 103.792 38.5866 103.914 38.9655C104.043 39.3443 104.216 39.5938 104.429 39.7139C104.643 39.834 104.926 39.8941 105.28 39.8941C105.484 39.8941 105.711 39.8802 105.962 39.8525C106.223 39.8155 106.474 39.7739 106.716 39.7277C106.958 39.6723 107.18 39.6123 107.385 39.5476C107.599 39.4737 107.766 39.3997 107.887 39.3258L108.486 40.7534C108.272 40.9844 107.979 41.1969 107.608 41.391C107.236 41.5851 106.818 41.7513 106.353 41.8899C105.898 42.0286 105.415 42.1348 104.903 42.2087C104.401 42.2919 103.904 42.3334 103.411 42.3334C102.733 42.3334 102.161 42.241 101.697 42.0562C101.232 41.8807 100.856 41.6081 100.567 41.2385C100.279 40.8596 100.07 40.3792 99.9401 39.7971C99.8095 39.2149 99.7447 38.522 99.7447 37.718V28.6535Z" fill="#435072"/>
<path d="M110.661 36.9696C110.763 36.3874 110.996 35.8747 111.358 35.4311C111.721 34.9783 112.162 34.5857 112.682 34.253C113.203 33.9204 113.78 33.6432 114.412 33.4214C115.043 33.1903 115.675 33.0102 116.307 32.8808C116.94 32.7422 117.553 32.6452 118.148 32.5898C118.743 32.5251 119.264 32.4928 119.709 32.4928V31.9661C119.709 31.2361 119.631 30.6401 119.473 30.1782C119.315 29.7162 119.086 29.3558 118.789 29.097C118.501 28.8291 118.152 28.6489 117.743 28.5565C117.334 28.4641 116.879 28.4179 116.377 28.4179C115.913 28.4179 115.462 28.4595 115.025 28.5426C114.588 28.6166 114.179 28.709 113.798 28.8198C113.417 28.9307 113.073 29.0554 112.766 29.194C112.46 29.3234 112.204 29.4436 111.999 29.5544L111.247 27.7942C111.479 27.6001 111.809 27.4061 112.237 27.212C112.673 27.0088 113.175 26.8286 113.742 26.6715C114.309 26.5052 114.927 26.3712 115.597 26.2696C116.266 26.1679 116.958 26.1171 117.674 26.1171C118.519 26.1171 119.309 26.2003 120.044 26.3666C120.778 26.5237 121.415 26.8101 121.954 27.2259C122.493 27.6325 122.916 28.1869 123.222 28.8892C123.529 29.5822 123.683 30.4692 123.683 31.5502L123.669 40.4208H125.468V41.6543C125.263 41.7837 125.03 41.8946 124.77 41.987C124.51 42.0794 124.236 42.1533 123.947 42.2087C123.669 42.2642 123.385 42.3011 123.097 42.3196C122.809 42.3473 122.535 42.3612 122.275 42.3612C122.098 42.3612 121.889 42.3427 121.647 42.3058C121.406 42.278 121.174 42.2087 120.95 42.0978C120.727 41.9962 120.536 41.8437 120.378 41.6404C120.22 41.4279 120.142 41.1461 120.142 40.795V40.6703C119.667 41.1415 119.082 41.5434 118.385 41.8761C117.688 42.1995 116.842 42.3612 115.848 42.3612C114.843 42.3612 113.983 42.2134 113.268 41.9176C112.553 41.622 111.977 41.2246 111.539 40.7256C111.112 40.2267 110.823 39.6538 110.675 39.007C110.536 38.3602 110.531 37.6811 110.661 36.9696ZM114.565 37.4547C114.565 38.4433 114.834 39.1456 115.373 39.5614C115.913 39.9773 116.689 40.1482 117.701 40.0743C118.101 40.0373 118.464 39.9311 118.789 39.7555C119.124 39.5707 119.426 39.372 119.695 39.1595C119.695 38.3464 119.695 37.5378 119.695 36.734C119.705 35.93 119.709 35.1216 119.709 34.3084C119.375 34.3084 119.012 34.327 118.622 34.3639C118.241 34.4008 117.859 34.4656 117.479 34.558C117.098 34.6504 116.731 34.7751 116.377 34.9321C116.033 35.0892 115.726 35.2833 115.457 35.5143C115.188 35.7453 114.969 36.0224 114.801 36.3458C114.644 36.66 114.565 37.0296 114.565 37.4547Z" fill="#435072"/>
<path d="M23.5049 26.2543C20.0684 26.2543 17.4121 29.0418 17.4121 32.324C17.4121 35.7476 20.0684 38.3545 23.7809 38.3545C26.8942 38.3545 29.5111 35.7947 29.5111 32.4182C29.5111 28.9005 26.8942 26.2543 23.5049 26.2543Z" fill="#435072"/>
<path d="M29.7628 42.0057C27.2405 44.11 25.2542 44.8796 22.3221 44.8796C19.3426 44.8796 16.7021 43.9216 14.5425 42.0057C11.697 39.493 10.1916 36.2108 10.1916 32.3711C10.1916 28.8534 11.5473 25.7047 14.1168 23.239C16.4026 21.0012 19.1456 19.8627 22.259 19.8627C25.2384 19.8627 27.8632 20.8677 29.1244 22.9721V12.9371C25.9794 11.0682 22.7477 9.98462 18.9959 9.98462C8.48901 9.98462 0 18.4649 0 28.9319C0 39.3988 8.52842 47.832 19.0352 47.832C22.9133 47.832 26.5233 46.5207 29.5342 44.6361H29.7707V42.0057H29.7628Z" fill="#435072"/>
<path d="M36.6982 36.5327C37.7229 34.2085 38.0618 31.6408 38.0618 28.9397C38.0618 26.2385 37.7229 23.6709 36.6982 21.3467" fill="#435072"/>
<path d="M36.6987 21.3388V10.7855L29.1318 12.2775V12.937C32.2848 14.9472 34.8069 17.8682 36.6987 21.3388Z" fill="#435072"/>
<path d="M36.6994 36.5327C34.8077 39.8934 32.8056 42.7595 29.7632 44.644H36.6994V36.5327Z" fill="#435072"/>
</g>
</svg>
