<svg width="123" height="59" viewBox="0 0 123 59" fill="none" xmlns="http://www.w3.org/2000/svg">
<g opacity="0.15" clip-path="url(#clip0_192_175)">
<path d="M31.9288 9.98462V36.4115H26.0386V11.243L31.9288 9.98462Z" fill="#435072"/>
<path d="M34.6821 26.9194C34.6821 25.5532 34.9488 24.2708 35.482 23.0722C36.0395 21.8498 36.7788 20.795 37.6999 19.9082C38.6453 19.0213 39.7483 18.3262 41.0087 17.8228C42.2934 17.2954 43.663 17.0317 45.1174 17.0317C46.5717 17.0317 47.9291 17.2954 49.1896 17.8228C50.4743 18.3262 51.5773 19.0213 52.4984 19.9082C53.4438 20.795 54.183 21.8498 54.7164 23.0722C55.2739 24.2708 55.5526 25.5532 55.5526 26.9194C55.5526 28.2857 55.2739 29.58 54.7164 30.8025C54.183 32.001 53.4438 33.0437 52.4984 33.9306C51.5773 34.8175 50.4743 35.5126 49.1896 36.016C47.9291 36.5194 46.5717 36.7711 45.1174 36.7711C43.663 36.7711 42.2934 36.5194 41.0087 36.016C39.7483 35.5126 38.6453 34.8175 37.6999 33.9306C36.7788 33.0437 36.0395 32.001 35.482 30.8025C34.9488 29.58 34.6821 28.2857 34.6821 26.9194ZM45.1174 31.7374C46.4263 31.7374 47.5292 31.27 48.4261 30.3352C49.3472 29.4003 49.8077 28.2617 49.8077 26.9194C49.8077 25.5532 49.3472 24.4026 48.4261 23.4677C47.5292 22.5329 46.4263 22.0654 45.1174 22.0654C43.8084 22.0654 42.6934 22.5329 41.7723 23.4677C40.8754 24.4026 40.427 25.5532 40.427 26.9194C40.427 28.2617 40.8754 29.4003 41.7723 30.3352C42.6934 31.27 43.8084 31.7374 45.1174 31.7374Z" fill="#435072"/>
<path d="M56.8242 34.2902L59.6239 30.3711C60.8359 31.0902 61.9388 31.6176 62.9326 31.9532C63.9266 32.2648 64.9083 32.4206 65.8778 32.4206C66.8474 32.4206 67.611 32.2887 68.1685 32.025C68.7503 31.7374 69.0411 31.3659 69.0411 30.9105C69.0411 30.551 68.8835 30.2633 68.5684 30.0475C68.2533 29.8078 67.7564 29.6401 67.0776 29.5441L63.2599 28.9688C61.3693 28.6813 59.9148 28.0581 58.8968 27.0993C57.8786 26.1164 57.3696 24.846 57.3696 23.288C57.3696 21.3704 58.1089 19.8602 59.5876 18.7577C61.0662 17.655 63.0902 17.1038 65.6597 17.1038C67.0413 17.1038 68.423 17.3074 69.8047 17.715C71.2106 18.0985 72.5075 18.6618 73.6951 19.4049L70.8955 23.1442C69.8531 22.5449 68.8593 22.1135 67.914 21.8498C66.9686 21.5622 66.0232 21.4183 65.0779 21.4183C64.3265 21.4183 63.7205 21.5502 63.2599 21.8139C62.7994 22.0535 62.5691 22.3771 62.5691 22.7846C62.5691 23.1681 62.7388 23.4798 63.0781 23.7195C63.4175 23.9351 63.9992 24.103 64.8233 24.2228L68.6411 24.7981C70.5318 25.0618 71.9863 25.685 73.0043 26.6678C74.0466 27.6265 74.5678 28.849 74.5678 30.3352C74.5678 31.2461 74.3496 32.0969 73.9133 32.888C73.477 33.679 72.871 34.3622 72.0953 34.9375C71.3439 35.5127 70.4349 35.9682 69.3684 36.3037C68.3018 36.6153 67.1504 36.7711 65.9142 36.7711C64.0962 36.7711 62.3994 36.5674 60.8238 36.1599C59.2725 35.7284 57.9393 35.1052 56.8242 34.2902Z" fill="#435072"/>
<path d="M75.3237 34.2902L78.1235 30.3711C79.3355 31.0902 80.4383 31.6176 81.4322 31.9532C82.426 32.2648 83.4077 32.4206 84.3773 32.4206C85.3469 32.4206 86.1105 32.2887 86.668 32.025C87.2497 31.7374 87.5406 31.3659 87.5406 30.9105C87.5406 30.551 87.3831 30.2633 87.0679 30.0475C86.7528 29.8078 86.2559 29.6401 85.5772 29.5441L81.7594 28.9688C79.8687 28.6813 78.4143 28.0581 77.3962 27.0993C76.3781 26.1164 75.8692 24.846 75.8692 23.288C75.8692 21.3704 76.6084 19.8602 78.0871 18.7577C79.5657 17.655 81.5898 17.1038 84.1592 17.1038C85.5408 17.1038 86.9225 17.3074 88.3042 17.715C89.7101 18.0985 91.0069 18.6618 92.195 19.4049L89.3949 23.1442C88.3526 22.5449 87.3588 22.1135 86.4135 21.8498C85.4681 21.5622 84.5228 21.4183 83.5774 21.4183C82.826 21.4183 82.22 21.5502 81.7594 21.8139C81.2989 22.0535 81.0686 22.3771 81.0686 22.7846C81.0686 23.1681 81.2383 23.4798 81.5776 23.7195C81.917 23.9351 82.4988 24.103 83.3229 24.2228L87.1406 24.7981C89.0313 25.0618 90.4858 25.685 91.5038 26.6678C92.5466 27.6265 93.067 28.849 93.067 30.3352C93.067 31.2461 92.8495 32.0969 92.4126 32.888C91.9766 33.679 91.3705 34.3622 90.5948 34.9375C89.8434 35.5127 88.9344 35.9682 87.8678 36.3037C86.8013 36.6153 85.6499 36.7711 84.4137 36.7711C82.5957 36.7711 80.8988 36.5674 79.3233 36.1599C77.772 35.7284 76.4387 35.1052 75.3237 34.2902Z" fill="#435072"/>
<path d="M113.126 33.8946C111.913 34.9014 110.665 35.6325 109.381 36.0879C108.121 36.5434 106.691 36.771 105.091 36.771C103.636 36.771 102.266 36.5194 100.982 36.016C99.697 35.5126 98.5818 34.8175 97.6363 33.9306C96.7156 33.0437 95.9758 32.001 95.4186 30.8025C94.8853 29.58 94.6191 28.2856 94.6191 26.9194C94.6191 25.5531 94.8734 24.2707 95.3819 23.0722C95.9152 21.8497 96.6303 20.795 97.5271 19.9082C98.4248 19.0213 99.4786 18.3262 100.691 17.8228C101.927 17.3194 103.248 17.0677 104.654 17.0677C106.06 17.0677 107.357 17.3313 108.545 17.8587C109.733 18.3861 110.75 19.1052 111.599 20.016C112.472 20.9269 113.15 22.0295 113.635 23.3239C114.12 24.5943 114.362 25.9726 114.362 27.4587V28.8969H100.654C101.043 29.7838 101.648 30.5148 102.473 31.0901C103.297 31.6415 104.266 31.9171 105.382 31.9171C106.181 31.9171 106.908 31.7973 107.563 31.5576C108.217 31.2939 108.775 30.9344 109.235 30.4789L113.126 33.8946ZM104.545 21.8138C103.575 21.8138 102.739 22.0775 102.036 22.6048C101.333 23.1321 100.836 23.8752 100.545 24.834H108.581C108.266 23.9231 107.744 23.192 107.017 22.6407C106.314 22.0895 105.49 21.8138 104.545 21.8138Z" fill="#435072"/>
<path d="M123.005 9.98462V36.4115H117.115V11.243L123.005 9.98462Z" fill="#435072"/>
<path d="M0 27.4708C0 26.0587 0.275049 24.7332 0.825146 23.4945C1.40024 22.231 2.16288 21.1409 3.11305 20.2242C4.08823 19.3075 5.22592 18.5891 6.52616 18.0688C7.85139 17.5238 9.2641 17.2512 10.7644 17.2512C12.2647 17.2512 13.6649 17.5238 14.9652 18.0688C16.2903 18.5891 17.4281 19.3075 18.3782 20.2242C19.3534 21.1409 20.1161 22.231 20.6662 23.4945C21.2413 24.7332 21.5289 26.0587 21.5289 27.4708C21.5289 28.883 21.2413 30.2209 20.6662 31.4844C20.1161 32.7231 19.3534 33.8008 18.3782 34.7175C17.4281 35.6342 16.2903 36.3527 14.9652 36.8729C13.6649 37.3932 12.2647 37.6533 10.7644 37.6533C9.2641 37.6533 7.85139 37.3932 6.52616 36.8729C5.22592 36.3527 4.08823 35.6342 3.11305 34.7175C2.16288 33.8008 1.40024 32.7231 0.825146 31.4844C0.275049 30.2209 0 28.883 0 27.4708ZM10.7644 32.4506C12.1147 32.4506 13.2523 31.9675 14.1775 31.0013C15.1277 30.0351 15.6027 28.8582 15.6027 27.4708C15.6027 26.0587 15.1277 24.8695 14.1775 23.9032C13.2523 22.9371 12.1147 22.4539 10.7644 22.4539C9.41418 22.4539 8.26397 22.9371 7.31379 23.9032C6.38863 24.8695 5.92605 26.0587 5.92605 27.4708C5.92605 28.8582 6.38863 30.0351 7.31379 31.0013C8.26397 31.9675 9.41418 32.4506 10.7644 32.4506Z" fill="#435072"/>
<path d="M23.2412 17.2512H10.7642C11.8424 19.1392 15.0156 22.5736 19.0822 22.5736C23.1488 22.5736 23.5493 19.1392 23.2412 17.2512Z" fill="#435072"/>
<path d="M0 42.0886H20.6318V47.4109H0V42.0886Z" fill="#435072"/>
</g>
<defs>
<clipPath id="clip0_192_175">
<rect width="123" height="59" fill="white"/>
</clipPath>
</defs>
</svg>
