<svg width="162" height="40" viewBox="0 0 162 40" fill="#000000" xmlns="http://www.w3.org/2000/svg">
<g clip-path="url(#clip0_317_1878)">
<path d="M160.389 30.5777L159.583 28.5333V30.5777H159.136V27.6444H159.673L160.568 29.8666L161.463 27.6444H162V30.5777H161.552V28.5333L160.747 30.5777H160.389Z" fill="#435072"/>
<path d="M156.451 27.6444H158.867V28.0889H157.883V30.5777H157.435V28.0889H156.451V27.6444Z" fill="#435072"/>
<path d="M154.034 11.6444L149.47 24.3555L144.905 11.6444H139.982L147.232 30.5777H151.707L158.868 11.6444H154.034Z" fill="#435072"/>
<path d="M132.464 30.5777H136.849V11.6444H132.464V30.5777Z" fill="#435072"/>
<path d="M112.773 15.6444H118.591V30.5777H122.977V15.6444H128.884V11.6444H112.773V15.6444Z" fill="#435072"/>
<path d="M110.178 18.0444C110.178 20.8 108.388 23.1111 105.971 24L110.715 30.5777H105.613L101.406 24.5333H99.4374V30.5777H95.0518V11.6444H103.823C107.314 11.6444 110.178 14.4889 110.178 18.0444ZM103.107 20.7111C104.539 20.7111 105.613 19.5555 105.613 18.2222C105.613 16.8889 104.45 15.7333 103.107 15.7333H99.4374V20.8H103.107V20.7111Z" fill="#435072"/>
<path d="M76.2563 30.5777H90.3978V26.5777H80.642V22.8444H88.6972V19.0222H80.642V15.6444H90.3978V11.6444H76.2563V30.5777Z" fill="#435072"/>
<path d="M63.7261 24.3555L59.1614 11.6444H54.2388L61.399 30.5777H65.8741L73.1239 11.6444H68.2907L63.7261 24.3555Z" fill="#435072"/>
<path d="M40.2762 11.6444L21.3017 30.4889L30.789 40C37.7702 36.5333 42.5138 29.4222 42.5138 21.1556C42.5138 17.6889 41.7083 14.4889 40.2762 11.6444ZM0 21.1556C0 29.4222 4.74365 36.5333 11.7249 40L21.3017 30.4889L2.23757 11.6444C0.805525 14.4889 0 17.6889 0 21.1556ZM21.3017 19.8222L29.5359 11.6444H40.2762C36.7856 4.71111 29.5359 0 21.3017 0C13.0674 0 5.72818 4.71111 2.23757 11.6444H12.9779L21.3017 19.8222Z" fill="#435072"/>
</g>
<defs>
<clipPath id="clip0_317_1878">
<rect width="162" height="40" fill="white"/>
</clipPath>
</defs>
</svg>
