<svg width="180" height="35" viewBox="0 0 180 35" fill="none" xmlns="http://www.w3.org/2000/svg">
<path d="M10.3398 16.0684V15.125C11.2285 15.0384 11.8483 14.8949 12.1992 14.6943C12.5501 14.4893 12.8122 14.0085 12.9854 13.252H13.9561V23H12.6436V16.0684H10.3398ZM23.2324 12.958V19.165C23.2324 19.8942 23.3691 20.5003 23.6426 20.9834C24.0482 21.7126 24.7318 22.0771 25.6934 22.0771C26.8464 22.0771 27.6302 21.6829 28.0449 20.8945C28.2682 20.4661 28.3799 19.8896 28.3799 19.165V12.958H29.7607V18.5977C29.7607 19.8327 29.5944 20.7829 29.2617 21.4482C28.651 22.6605 27.498 23.2666 25.8027 23.2666C24.1074 23.2666 22.9567 22.6605 22.3506 21.4482C22.0179 20.7829 21.8516 19.8327 21.8516 18.5977V12.958H23.2324ZM32.7617 19.7598C32.7936 20.3294 32.9281 20.792 33.165 21.1475C33.6162 21.8128 34.4115 22.1455 35.5508 22.1455C36.0612 22.1455 36.526 22.0726 36.9453 21.9268C37.7565 21.6442 38.1621 21.1383 38.1621 20.4092C38.1621 19.8623 37.9912 19.4727 37.6494 19.2402C37.3031 19.0124 36.7607 18.8141 36.0225 18.6455L34.6621 18.3379C33.7734 18.1374 33.1445 17.9163 32.7754 17.6748C32.1374 17.2555 31.8184 16.6289 31.8184 15.7949C31.8184 14.8926 32.1305 14.152 32.7549 13.5732C33.3792 12.9945 34.2633 12.7051 35.4072 12.7051C36.46 12.7051 37.3532 12.9603 38.0869 13.4707C38.8252 13.9766 39.1943 14.7878 39.1943 15.9043H37.916C37.8477 15.3665 37.7018 14.9541 37.4785 14.667C37.0638 14.1429 36.3597 13.8809 35.3662 13.8809C34.5641 13.8809 33.9876 14.0495 33.6367 14.3867C33.2858 14.724 33.1104 15.1159 33.1104 15.5625C33.1104 16.0547 33.3154 16.4147 33.7256 16.6426C33.9945 16.7884 34.6029 16.9707 35.5508 17.1895L36.959 17.5107C37.638 17.6657 38.1621 17.8776 38.5312 18.1465C39.1693 18.6159 39.4883 19.2972 39.4883 20.1904C39.4883 21.3024 39.0827 22.0977 38.2715 22.5762C37.4648 23.0547 36.526 23.2939 35.4551 23.2939C34.2064 23.2939 33.2288 22.9749 32.5225 22.3369C31.8161 21.7035 31.4697 20.8444 31.4834 19.7598H32.7617ZM45.0664 21.8379C45.5267 21.8379 45.9049 21.79 46.2012 21.6943C46.7298 21.5166 47.1628 21.1748 47.5 20.6689C47.7689 20.2633 47.9626 19.7438 48.0811 19.1104C48.1494 18.7321 48.1836 18.3812 48.1836 18.0576C48.1836 16.8135 47.9352 15.8473 47.4385 15.1592C46.9463 14.471 46.151 14.127 45.0527 14.127H42.6396V21.8379H45.0664ZM41.2725 12.958H45.3398C46.7207 12.958 47.7917 13.4479 48.5527 14.4277C49.2318 15.3118 49.5713 16.4443 49.5713 17.8252C49.5713 18.8916 49.3708 19.8555 48.9697 20.7168C48.2633 22.2389 47.0488 23 45.3262 23H41.2725V12.958ZM54.7393 18.4678H58.1709V19.7324H54.7393V18.4678ZM64.0566 16.0684V15.125C64.9453 15.0384 65.5651 14.8949 65.916 14.6943C66.2669 14.4893 66.529 14.0085 66.7021 13.252H67.6729V23H66.3604V16.0684H64.0566ZM71.7061 21.5098H73.1348V23H71.7061V21.5098ZM81.7275 13.375V14.4482C81.4131 14.7536 80.9938 15.2845 80.4697 16.041C79.9502 16.7975 79.4899 17.6133 79.0889 18.4883C78.6924 19.3405 78.3916 20.1175 78.1865 20.8193C78.0544 21.2705 77.8835 21.9974 77.6738 23H76.3135C76.6234 21.1315 77.307 19.2721 78.3643 17.4219C78.9886 16.3372 79.6449 15.4007 80.333 14.6123H74.9189V13.375H81.7275ZM85.9863 13.2109C87.2533 13.2109 88.1693 13.7327 88.7344 14.7764C89.1719 15.583 89.3906 16.6882 89.3906 18.0918C89.3906 19.4225 89.1924 20.5231 88.7959 21.3936C88.2217 22.6423 87.2829 23.2666 85.9795 23.2666C84.8037 23.2666 83.9287 22.7562 83.3545 21.7354C82.876 20.8831 82.6367 19.7393 82.6367 18.3037C82.6367 17.1917 82.7803 16.237 83.0674 15.4395C83.6051 13.9538 84.5781 13.2109 85.9863 13.2109ZM85.9727 22.1455C86.6107 22.1455 87.1188 21.863 87.4971 21.2979C87.8753 20.7327 88.0645 19.68 88.0645 18.1396C88.0645 17.0277 87.9277 16.1139 87.6543 15.3984C87.3809 14.6784 86.8499 14.3184 86.0615 14.3184C85.3369 14.3184 84.806 14.6602 84.4688 15.3438C84.1361 16.0228 83.9697 17.0254 83.9697 18.3516C83.9697 19.3496 84.0768 20.1517 84.291 20.7578C84.6191 21.6829 85.1797 22.1455 85.9727 22.1455ZM93.7793 13.2109C95.0462 13.2109 95.9622 13.7327 96.5273 14.7764C96.9648 15.583 97.1836 16.6882 97.1836 18.0918C97.1836 19.4225 96.9854 20.5231 96.5889 21.3936C96.0146 22.6423 95.0758 23.2666 93.7725 23.2666C92.5967 23.2666 91.7217 22.7562 91.1475 21.7354C90.6689 20.8831 90.4297 19.7393 90.4297 18.3037C90.4297 17.1917 90.5732 16.237 90.8604 15.4395C91.3981 13.9538 92.3711 13.2109 93.7793 13.2109ZM93.7656 22.1455C94.4036 22.1455 94.9118 21.863 95.29 21.2979C95.6683 20.7327 95.8574 19.68 95.8574 18.1396C95.8574 17.0277 95.7207 16.1139 95.4473 15.3984C95.1738 14.6784 94.6429 14.3184 93.8545 14.3184C93.1299 14.3184 92.599 14.6602 92.2617 15.3438C91.929 16.0228 91.7627 17.0254 91.7627 18.3516C91.7627 19.3496 91.8698 20.1517 92.084 20.7578C92.4121 21.6829 92.9727 22.1455 93.7656 22.1455ZM107.137 18.8848L105.612 14.4482L103.992 18.8848H107.137ZM104.901 12.958H106.439L110.083 23H108.593L107.574 19.9922H103.603L102.516 23H101.121L104.901 12.958ZM110.575 21.8721L116.734 14.1543H111.026V12.958H118.484V14.127L112.291 21.8037H118.484V23H110.575V21.8721ZM119.879 12.958H121.485L126.558 21.0928V12.958H127.85V23H126.325L121.178 14.8721V23H119.879V12.958ZM132.826 23.98H146.826V9.98H132.826V23.98Z" fill="white"/>
<rect x="0.5" y="0.5" width="179" height="34" rx="3.5" stroke="#D7D7D7"/>
<path d="M169 15L164 20L159 15" stroke="white" stroke-width="2"/>
</svg>
