<svg width="317" height="52" viewBox="0 0 317 52" fill="none" xmlns="http://www.w3.org/2000/svg">
<path d="M45.9512 7.33887H39.0957V10.0898H45.3887V12.3398H39.0957V15.6709H46.2676V18H36.4502V5.04492H45.9512V7.33887ZM58.8799 8.20898C59.3018 8.20898 59.7178 8.29102 60.1279 8.45508C60.5381 8.61914 60.9102 8.90625 61.2441 9.31641C61.5137 9.65039 61.6953 10.0605 61.7891 10.5469C61.8477 10.8691 61.877 11.3408 61.877 11.9619L61.8594 18H59.293V11.9004C59.293 11.5371 59.2344 11.2383 59.1172 11.0039C58.8945 10.5586 58.4844 10.3359 57.8867 10.3359C57.1953 10.3359 56.7178 10.623 56.4541 11.1973C56.3193 11.502 56.252 11.8682 56.252 12.2959V18H53.7295V12.2959C53.7295 11.7275 53.6709 11.3145 53.5537 11.0566C53.3428 10.5938 52.9297 10.3623 52.3145 10.3623C51.5996 10.3623 51.1191 10.5938 50.873 11.0566C50.7383 11.3203 50.6709 11.7129 50.6709 12.2344V18H48.1309V8.4375H50.5654V9.83496C50.876 9.33691 51.1689 8.98242 51.4443 8.77148C51.9307 8.39648 52.5605 8.20898 53.334 8.20898C54.0664 8.20898 54.6582 8.37012 55.1094 8.69238C55.4727 8.99121 55.748 9.375 55.9355 9.84375C56.2637 9.28125 56.6709 8.86816 57.1572 8.60449C57.6729 8.34082 58.2471 8.20898 58.8799 8.20898ZM69.4707 13.3418C69.3125 13.4414 69.1514 13.5234 68.9873 13.5879C68.8291 13.6465 68.6094 13.7021 68.3281 13.7549L67.7656 13.8604C67.2383 13.9541 66.8604 14.0684 66.6318 14.2031C66.2451 14.4316 66.0518 14.7861 66.0518 15.2666C66.0518 15.6943 66.1689 16.0049 66.4033 16.1982C66.6436 16.3857 66.9336 16.4795 67.2734 16.4795C67.8125 16.4795 68.3076 16.3213 68.7588 16.0049C69.2158 15.6885 69.4531 15.1113 69.4707 14.2734V13.3418ZM67.9502 12.1729C68.4131 12.1143 68.7441 12.041 68.9434 11.9531C69.3008 11.8008 69.4795 11.5635 69.4795 11.2412C69.4795 10.8486 69.3418 10.5791 69.0664 10.4326C68.7969 10.2803 68.3984 10.2041 67.8711 10.2041C67.2793 10.2041 66.8604 10.3506 66.6143 10.6436C66.4385 10.8604 66.3213 11.1533 66.2627 11.5225H63.8457C63.8984 10.6846 64.1328 9.99609 64.5488 9.45703C65.2109 8.61328 66.3477 8.19141 67.959 8.19141C69.0078 8.19141 69.9395 8.39941 70.7539 8.81543C71.5684 9.23145 71.9756 10.0166 71.9756 11.1709V15.5654C71.9756 15.8701 71.9814 16.2393 71.9932 16.6729C72.0107 17.001 72.0605 17.2236 72.1426 17.3408C72.2246 17.458 72.3477 17.5547 72.5117 17.6309V18H69.7871C69.7109 17.8066 69.6582 17.625 69.6289 17.4551C69.5996 17.2852 69.5762 17.0918 69.5586 16.875C69.2129 17.25 68.8145 17.5693 68.3633 17.833C67.8242 18.1436 67.2148 18.2988 66.5352 18.2988C65.668 18.2988 64.9502 18.0527 64.3818 17.5605C63.8193 17.0625 63.5381 16.3594 63.5381 15.4512C63.5381 14.2734 63.9922 13.4209 64.9004 12.8936C65.3984 12.6064 66.1309 12.4014 67.0977 12.2783L67.9502 12.1729ZM76.7832 7.27734H74.2432V4.96582H76.7832V7.27734ZM74.2432 8.41992H76.7832V18H74.2432V8.41992ZM81.7754 18H79.2705V5.04492H81.7754V18Z" fill="white"/>
<path opacity="0.7" d="M1.03125 39.6719H2.46094V48H1.03125V39.6719ZM1.03125 36.5234H2.46094V38.1172H1.03125V36.5234ZM4.59375 39.6328H5.92969V40.8203C6.32552 40.3307 6.74479 39.9792 7.1875 39.7656C7.63021 39.5521 8.1224 39.4453 8.66406 39.4453C9.85156 39.4453 10.6536 39.8594 11.0703 40.6875C11.2995 41.1406 11.4141 41.7891 11.4141 42.6328V48H9.98438V42.7266C9.98438 42.2161 9.90885 41.8047 9.75781 41.4922C9.50781 40.9714 9.05469 40.7109 8.39844 40.7109C8.0651 40.7109 7.79167 40.7448 7.57812 40.8125C7.19271 40.9271 6.85417 41.1562 6.5625 41.5C6.32812 41.776 6.17448 42.0625 6.10156 42.3594C6.03385 42.651 6 43.0703 6 43.6172V48H4.59375V39.6328ZM13.8516 38.3594C13.8724 37.776 13.974 37.349 14.1562 37.0781C14.4844 36.599 15.1172 36.3594 16.0547 36.3594C16.1432 36.3594 16.2344 36.362 16.3281 36.3672C16.4219 36.3724 16.5286 36.3802 16.6484 36.3906V37.6719C16.5026 37.6615 16.3958 37.6562 16.3281 37.6562C16.2656 37.651 16.2057 37.6484 16.1484 37.6484C15.7214 37.6484 15.4661 37.7604 15.3828 37.9844C15.2995 38.2031 15.2578 38.7656 15.2578 39.6719H16.6484V40.7812H15.2422V48H13.8516V40.7812H12.6875V39.6719H13.8516V38.3594ZM21.2734 47.0938C22.2057 47.0938 22.8438 46.7422 23.1875 46.0391C23.5365 45.3307 23.7109 44.5443 23.7109 43.6797C23.7109 42.8984 23.5859 42.263 23.3359 41.7734C22.9401 41.0026 22.2578 40.6172 21.2891 40.6172C20.4297 40.6172 19.8047 40.9453 19.4141 41.6016C19.0234 42.2578 18.8281 43.0495 18.8281 43.9766C18.8281 44.8672 19.0234 45.6094 19.4141 46.2031C19.8047 46.7969 20.4245 47.0938 21.2734 47.0938ZM21.3281 39.3906C22.4062 39.3906 23.3177 39.75 24.0625 40.4688C24.8073 41.1875 25.1797 42.2448 25.1797 43.6406C25.1797 44.9896 24.8516 46.1042 24.1953 46.9844C23.5391 47.8646 22.5208 48.3047 21.1406 48.3047C19.9896 48.3047 19.0755 47.9167 18.3984 47.1406C17.7214 46.3594 17.3828 45.3125 17.3828 44C17.3828 42.5938 17.7396 41.474 18.4531 40.6406C19.1667 39.8073 20.125 39.3906 21.3281 39.3906ZM35.5859 41.0234C35.5859 40.7005 35.4766 40.4115 35.2578 40.1562C35.0443 39.8958 34.7474 39.7656 34.3672 39.7656C33.7734 39.7656 33.2578 40.1172 32.8203 40.8203C32.388 41.5182 32.1719 42.2135 32.1719 42.9062C32.1719 43.4167 32.2839 43.8073 32.5078 44.0781C32.7318 44.3438 33.013 44.4766 33.3516 44.4766C34.0547 44.4766 34.6016 44.0677 34.9922 43.25C35.388 42.4271 35.5859 41.6849 35.5859 41.0234ZM34.0312 48.3359C31.8542 48.3359 30.1771 47.6562 29 46.2969C28.0573 45.2083 27.5859 43.9505 27.5859 42.5234C27.5859 40.8255 28.1589 39.3828 29.3047 38.1953C30.5755 36.8724 32.2812 36.2109 34.4219 36.2109C36.276 36.2109 37.7344 36.6797 38.7969 37.6172C39.7917 38.5026 40.2891 39.651 40.2891 41.0625C40.2891 42.25 39.9323 43.2656 39.2188 44.1094C38.5104 44.9479 37.7161 45.3672 36.8359 45.3672C36.3203 45.3672 35.9401 45.2448 35.6953 45C35.4505 44.75 35.3281 44.4505 35.3281 44.1016C35.3281 44.0443 35.3333 43.9844 35.3438 43.9219C35.3542 43.8594 35.3672 43.7943 35.3828 43.7266C35.1068 44.3255 34.7578 44.75 34.3359 45C33.9141 45.2448 33.4792 45.3672 33.0312 45.3672C32.3906 45.3672 31.8698 45.1354 31.4688 44.6719C31.0729 44.2083 30.875 43.612 30.875 42.8828C30.875 41.8464 31.2135 40.9323 31.8906 40.1406C32.5729 39.349 33.3047 38.9531 34.0859 38.9531C34.6172 38.9531 35.0547 39.1068 35.3984 39.4141C35.7474 39.7214 35.9323 40.0911 35.9531 40.5234L36.3438 39.2109H37.4922L36.4531 42.6328C36.375 42.8984 36.3177 43.112 36.2812 43.2734C36.2448 43.4349 36.2266 43.5781 36.2266 43.7031C36.2266 43.9375 36.2969 44.1094 36.4375 44.2188C36.5833 44.3229 36.7474 44.375 36.9297 44.375C37.5234 44.375 38.0547 44.0651 38.5234 43.4453C38.9974 42.8255 39.2344 42.0156 39.2344 41.0156C39.2344 39.8073 38.8125 38.8594 37.9688 38.1719C37.125 37.4792 35.9896 37.1328 34.5625 37.1328C32.5833 37.1328 31.0703 37.7109 30.0234 38.8672C29.1276 39.8516 28.6797 41.0885 28.6797 42.5781C28.6797 43.8802 29.1068 44.974 29.9609 45.8594C30.9609 46.9062 32.3854 47.4297 34.2344 47.4297C35.099 47.4297 35.9036 47.2943 36.6484 47.0234C37.3932 46.7474 38.0755 46.3776 38.6953 45.9141L39.2109 46.6172C38.7422 47.0339 38.0417 47.4245 37.1094 47.7891C36.1771 48.1536 35.151 48.3359 34.0312 48.3359ZM43.1094 39.6328H44.4453V40.8203C44.8411 40.3307 45.2604 39.9792 45.7031 39.7656C46.1458 39.5521 46.638 39.4453 47.1797 39.4453C48.3672 39.4453 49.1693 39.8594 49.5859 40.6875C49.8151 41.1406 49.9297 41.7891 49.9297 42.6328V48H48.5V42.7266C48.5 42.2161 48.4245 41.8047 48.2734 41.4922C48.0234 40.9714 47.5703 40.7109 46.9141 40.7109C46.5807 40.7109 46.3073 40.7448 46.0938 40.8125C45.7083 40.9271 45.3698 41.1562 45.0781 41.5C44.8438 41.776 44.6901 42.0625 44.6172 42.3594C44.5495 42.651 44.5156 43.0703 44.5156 43.6172V48H43.1094V39.6328ZM55.5 39.4453C56.0938 39.4453 56.6693 39.5859 57.2266 39.8672C57.7839 40.1432 58.2083 40.5026 58.5 40.9453C58.7812 41.3672 58.9688 41.8594 59.0625 42.4219C59.1458 42.8073 59.1875 43.4219 59.1875 44.2656H53.0547C53.0807 45.1146 53.2812 45.7969 53.6562 46.3125C54.0312 46.8229 54.612 47.0781 55.3984 47.0781C56.1328 47.0781 56.7188 46.8359 57.1562 46.3516C57.4062 46.0703 57.5833 45.7448 57.6875 45.375H59.0703C59.0339 45.6823 58.9115 46.026 58.7031 46.4062C58.5 46.7812 58.2708 47.0885 58.0156 47.3281C57.5885 47.7448 57.0599 48.026 56.4297 48.1719C56.0911 48.2552 55.7083 48.2969 55.2812 48.2969C54.2396 48.2969 53.3568 47.9193 52.6328 47.1641C51.9089 46.4036 51.5469 45.3411 51.5469 43.9766C51.5469 42.6328 51.9115 41.5417 52.6406 40.7031C53.3698 39.8646 54.3229 39.4453 55.5 39.4453ZM57.7422 43.1484C57.6849 42.5391 57.5521 42.0521 57.3438 41.6875C56.9583 41.0104 56.3151 40.6719 55.4141 40.6719C54.7682 40.6719 54.2266 40.9062 53.7891 41.375C53.3516 41.8385 53.1198 42.4297 53.0938 43.1484H57.7422ZM61.2031 37.2969H62.625V39.6328H63.9609V40.7812H62.625V46.2422C62.625 46.5339 62.724 46.7292 62.9219 46.8281C63.0312 46.8854 63.2135 46.9141 63.4688 46.9141C63.5365 46.9141 63.6094 46.9141 63.6875 46.9141C63.7656 46.9089 63.8568 46.901 63.9609 46.8906V48C63.7995 48.0469 63.6302 48.0807 63.4531 48.1016C63.2812 48.1224 63.0938 48.1328 62.8906 48.1328C62.2344 48.1328 61.7891 47.9661 61.5547 47.6328C61.3203 47.2943 61.2031 46.8568 61.2031 46.3203V40.7812H60.0703V39.6328H61.2031V37.2969ZM68.9062 47.0547C69.5625 47.0547 70.1068 46.7812 70.5391 46.2344C70.9766 45.6823 71.1953 44.8594 71.1953 43.7656C71.1953 43.099 71.099 42.526 70.9062 42.0469C70.5417 41.125 69.875 40.6641 68.9062 40.6641C67.9323 40.6641 67.2656 41.151 66.9062 42.125C66.7135 42.6458 66.6172 43.3073 66.6172 44.1094C66.6172 44.7552 66.7135 45.3047 66.9062 45.7578C67.2708 46.6224 67.9375 47.0547 68.9062 47.0547ZM65.2656 39.6719H66.6328V40.7812C66.9141 40.401 67.2214 40.1068 67.5547 39.8984C68.0286 39.5859 68.5859 39.4297 69.2266 39.4297C70.1745 39.4297 70.9792 39.7943 71.6406 40.5234C72.3021 41.2474 72.6328 42.2839 72.6328 43.6328C72.6328 45.4557 72.1562 46.7578 71.2031 47.5391C70.599 48.0339 69.8958 48.2812 69.0938 48.2812C68.4635 48.2812 67.9349 48.1432 67.5078 47.8672C67.2578 47.7109 66.9792 47.4427 66.6719 47.0625V51.3359H65.2656V39.6719ZM74.3203 39.6328H75.6562V41.0781C75.7656 40.7969 76.0339 40.4557 76.4609 40.0547C76.888 39.6484 77.3802 39.4453 77.9375 39.4453C77.9635 39.4453 78.0078 39.4479 78.0703 39.4531C78.1328 39.4583 78.2396 39.4688 78.3906 39.4844V40.9688C78.3073 40.9531 78.2292 40.9427 78.1562 40.9375C78.0885 40.9323 78.013 40.9297 77.9297 40.9297C77.2214 40.9297 76.6771 41.1589 76.2969 41.6172C75.9167 42.0703 75.7266 42.5938 75.7266 43.1875V48H74.3203V39.6328ZM82.9297 47.0938C83.862 47.0938 84.5 46.7422 84.8438 46.0391C85.1927 45.3307 85.3672 44.5443 85.3672 43.6797C85.3672 42.8984 85.2422 42.263 84.9922 41.7734C84.5964 41.0026 83.9141 40.6172 82.9453 40.6172C82.0859 40.6172 81.4609 40.9453 81.0703 41.6016C80.6797 42.2578 80.4844 43.0495 80.4844 43.9766C80.4844 44.8672 80.6797 45.6094 81.0703 46.2031C81.4609 46.7969 82.0807 47.0938 82.9297 47.0938ZM82.9844 39.3906C84.0625 39.3906 84.974 39.75 85.7188 40.4688C86.4635 41.1875 86.8359 42.2448 86.8359 43.6406C86.8359 44.9896 86.5078 46.1042 85.8516 46.9844C85.1953 47.8646 84.1771 48.3047 82.7969 48.3047C81.6458 48.3047 80.7318 47.9167 80.0547 47.1406C79.3776 46.3594 79.0391 45.3125 79.0391 44C79.0391 42.5938 79.3958 41.474 80.1094 40.6406C80.8229 39.8073 81.7812 39.3906 82.9844 39.3906ZM91.4688 39.4844C92.125 39.4844 92.6979 39.6458 93.1875 39.9688C93.4531 40.151 93.724 40.4167 94 40.7656V39.7109H95.2969V47.3203C95.2969 48.3828 95.1406 49.2214 94.8281 49.8359C94.2448 50.9714 93.1432 51.5391 91.5234 51.5391C90.6224 51.5391 89.8646 51.3359 89.25 50.9297C88.6354 50.5286 88.2917 49.8984 88.2188 49.0391H89.6484C89.7161 49.4141 89.8516 49.7031 90.0547 49.9062C90.3724 50.2188 90.8724 50.375 91.5547 50.375C92.6328 50.375 93.3385 49.9948 93.6719 49.2344C93.8698 48.7865 93.9609 47.987 93.9453 46.8359C93.6641 47.263 93.3255 47.5807 92.9297 47.7891C92.5339 47.9974 92.0104 48.1016 91.3594 48.1016C90.4531 48.1016 89.6589 47.7812 88.9766 47.1406C88.2995 46.4948 87.9609 45.4297 87.9609 43.9453C87.9609 42.5443 88.3021 41.4505 88.9844 40.6641C89.6719 39.8776 90.5 39.4844 91.4688 39.4844ZM94 43.7812C94 42.7448 93.7865 41.9766 93.3594 41.4766C92.9323 40.9766 92.388 40.7266 91.7266 40.7266C90.737 40.7266 90.0599 41.1901 89.6953 42.1172C89.5026 42.612 89.4062 43.2604 89.4062 44.0625C89.4062 45.0052 89.5964 45.724 89.9766 46.2188C90.362 46.7083 90.8776 46.9531 91.5234 46.9531C92.5339 46.9531 93.2448 46.4974 93.6562 45.5859C93.8854 45.0703 94 44.4688 94 43.7812ZM97.4609 39.6328H98.7969V41.0781C98.9062 40.7969 99.1745 40.4557 99.6016 40.0547C100.029 39.6484 100.521 39.4453 101.078 39.4453C101.104 39.4453 101.148 39.4479 101.211 39.4531C101.273 39.4583 101.38 39.4688 101.531 39.4844V40.9688C101.448 40.9531 101.37 40.9427 101.297 40.9375C101.229 40.9323 101.154 40.9297 101.07 40.9297C100.362 40.9297 99.8177 41.1589 99.4375 41.6172C99.0573 42.0703 98.8672 42.5938 98.8672 43.1875V48H97.4609V39.6328ZM106.07 47.0938C107.003 47.0938 107.641 46.7422 107.984 46.0391C108.333 45.3307 108.508 44.5443 108.508 43.6797C108.508 42.8984 108.383 42.263 108.133 41.7734C107.737 41.0026 107.055 40.6172 106.086 40.6172C105.227 40.6172 104.602 40.9453 104.211 41.6016C103.82 42.2578 103.625 43.0495 103.625 43.9766C103.625 44.8672 103.82 45.6094 104.211 46.2031C104.602 46.7969 105.221 47.0938 106.07 47.0938ZM106.125 39.3906C107.203 39.3906 108.115 39.75 108.859 40.4688C109.604 41.1875 109.977 42.2448 109.977 43.6406C109.977 44.9896 109.648 46.1042 108.992 46.9844C108.336 47.8646 107.318 48.3047 105.938 48.3047C104.786 48.3047 103.872 47.9167 103.195 47.1406C102.518 46.3594 102.18 45.3125 102.18 44C102.18 42.5938 102.536 41.474 103.25 40.6406C103.964 39.8073 104.922 39.3906 106.125 39.3906ZM113.062 39.6328V45.1875C113.062 45.6146 113.13 45.9635 113.266 46.2344C113.516 46.7344 113.982 46.9844 114.664 46.9844C115.643 46.9844 116.31 46.5469 116.664 45.6719C116.857 45.2031 116.953 44.5599 116.953 43.7422V39.6328H118.359V48H117.031L117.047 46.7656C116.865 47.0833 116.638 47.3516 116.367 47.5703C115.831 48.0078 115.18 48.2266 114.414 48.2266C113.221 48.2266 112.409 47.8281 111.977 47.0312C111.742 46.6042 111.625 46.0339 111.625 45.3203V39.6328H113.062ZM124.094 47.0547C124.75 47.0547 125.294 46.7812 125.727 46.2344C126.164 45.6823 126.383 44.8594 126.383 43.7656C126.383 43.099 126.286 42.526 126.094 42.0469C125.729 41.125 125.062 40.6641 124.094 40.6641C123.12 40.6641 122.453 41.151 122.094 42.125C121.901 42.6458 121.805 43.3073 121.805 44.1094C121.805 44.7552 121.901 45.3047 122.094 45.7578C122.458 46.6224 123.125 47.0547 124.094 47.0547ZM120.453 39.6719H121.82V40.7812C122.102 40.401 122.409 40.1068 122.742 39.8984C123.216 39.5859 123.773 39.4297 124.414 39.4297C125.362 39.4297 126.167 39.7943 126.828 40.5234C127.49 41.2474 127.82 42.2839 127.82 43.6328C127.82 45.4557 127.344 46.7578 126.391 47.5391C125.786 48.0339 125.083 48.2812 124.281 48.2812C123.651 48.2812 123.122 48.1432 122.695 47.8672C122.445 47.7109 122.167 47.4427 121.859 47.0625V51.3359H120.453V39.6719ZM129.805 46.2969H131.438V48H129.805V46.2969ZM135 45.7734C135 46.1797 135.148 46.5 135.445 46.7344C135.742 46.9688 136.094 47.0859 136.5 47.0859C136.995 47.0859 137.474 46.9714 137.938 46.7422C138.719 46.362 139.109 45.7396 139.109 44.875V43.7422C138.938 43.8516 138.716 43.9427 138.445 44.0156C138.174 44.0885 137.909 44.1406 137.648 44.1719L136.797 44.2812C136.286 44.349 135.904 44.4557 135.648 44.6016C135.216 44.8464 135 45.237 135 45.7734ZM138.406 42.9297C138.729 42.888 138.945 42.7526 139.055 42.5234C139.117 42.3984 139.148 42.2188 139.148 41.9844C139.148 41.5052 138.977 41.1589 138.633 40.9453C138.294 40.7266 137.807 40.6172 137.172 40.6172C136.438 40.6172 135.917 40.8151 135.609 41.2109C135.438 41.4297 135.326 41.7552 135.273 42.1875H133.961C133.987 41.1562 134.32 40.4401 134.961 40.0391C135.607 39.6328 136.354 39.4297 137.203 39.4297C138.188 39.4297 138.987 39.6172 139.602 39.9922C140.211 40.3672 140.516 40.9505 140.516 41.7422V46.5625C140.516 46.7083 140.544 46.8255 140.602 46.9141C140.664 47.0026 140.792 47.0469 140.984 47.0469C141.047 47.0469 141.117 47.0443 141.195 47.0391C141.273 47.0286 141.357 47.0156 141.445 47V48.0391C141.227 48.1016 141.06 48.1406 140.945 48.1562C140.831 48.1719 140.674 48.1797 140.477 48.1797C139.992 48.1797 139.641 48.0078 139.422 47.6641C139.307 47.4818 139.227 47.224 139.18 46.8906C138.893 47.2656 138.482 47.5911 137.945 47.8672C137.409 48.1432 136.818 48.2812 136.172 48.2812C135.396 48.2812 134.76 48.0469 134.266 47.5781C133.776 47.1042 133.531 46.513 133.531 45.8047C133.531 45.0286 133.773 44.4271 134.258 44C134.742 43.5729 135.378 43.3099 136.164 43.2109L138.406 42.9297ZM142.203 46.8906L147.164 40.8906H142.57V39.6328H149.055V40.7812L144.125 46.7422H149.203V48H142.203V46.8906Z" fill="white"/>
<path d="M16.6665 3.3335H3.33317C2.4165 3.3335 1.67484 4.0835 1.67484 5.00016L1.6665 15.0002C1.6665 15.9168 2.4165 16.6668 3.33317 16.6668H16.6665C17.5832 16.6668 18.3332 15.9168 18.3332 15.0002V5.00016C18.3332 4.0835 17.5832 3.3335 16.6665 3.3335ZM16.6665 6.66683L9.99984 10.8335L3.33317 6.66683V5.00016L9.99984 9.16683L16.6665 5.00016V6.66683Z" fill="white"/>
</svg>
