<svg width="67" height="17" viewBox="0 0 67 17" fill="none" xmlns="http://www.w3.org/2000/svg">
<g clip-path="url(#clip0_197_750)">
<path d="M7.9998 0.5C4.7248 0.5 1.9498 2.6 0.924805 5.5H15.0748C14.0498 2.6 11.2748 0.5 7.9998 0.5Z" fill="#428BC1"/>
<path d="M7.9998 15.5C11.2748 15.5 14.0498 13.425 15.0748 10.5H0.924805C1.9498 13.425 4.7248 15.5 7.9998 15.5Z" fill="#83BF4F"/>
<path d="M0.925 5.5C0.65 6.275 0.5 7.125 0.5 8C0.5 8.875 0.65 9.725 0.925 10.5H15.075C15.35 9.725 15.5 8.875 15.5 8C15.5 7.125 15.35 6.275 15.075 5.5H0.925Z" fill="#ED4C5C"/>
<path d="M7.9002 10.05C6.7752 10.05 5.8502 9.12501 5.8502 8.00001C5.8502 6.87501 6.7752 5.95001 7.9002 5.95001C8.1752 5.95001 8.4252 6.00001 8.6502 6.10001C8.2502 5.80001 7.7502 5.60001 7.2002 5.60001C5.8752 5.60001 4.8252 6.67501 4.8252 8.00001C4.8252 9.32501 5.9002 10.4 7.2002 10.4C7.7502 10.4 8.2502 10.225 8.6502 9.90001C8.4252 10 8.1752 10.05 7.9002 10.05Z" fill="white"/>
<path d="M10.1 8.35L9.55 8.725L9.9 8.15L9.25 8L9.9 7.85L9.525 7.3L10.1 7.65L10.25 7L10.4 7.65L10.95 7.275L10.6 7.85L11.25 8L10.6 8.15L10.975 8.7L10.4 8.35L10.25 9L10.1 8.35Z" fill="white"/>
</g>
<path d="M27.8213 9.19238H30.3779L29.1201 5.22754L27.8213 9.19238ZM27.9512 2.92383H30.3301L33.8984 13H31.6152L30.9658 10.9287H27.2539L26.5566 13H24.3555L27.9512 2.92383ZM34.4727 11.2227L39.6748 4.70801H34.6025V2.92383H42.2998V4.6123L37.0293 11.2227H42.3135V13H34.4727V11.2227Z" fill="white"/>
<path d="M54.9999 5.79999L58.9999 9.79999L62.9999 5.79999L64.5999 6.59999L58.9999 12.2L53.3999 6.59999L54.9999 5.79999Z" fill="white"/>
<defs>
<clipPath id="clip0_197_750">
<rect width="16" height="16" fill="white"/>
</clipPath>
</defs>
</svg>
