<svg width="120" height="70" viewBox="0 0 120 70" fill="none" xmlns="http://www.w3.org/2000/svg">
<g clip-path="url(#clip0_344_3662)">
<path d="M20.7 0H0V20.7L20.7 0Z" fill="white"/>
<path d="M46 61.2H61.2V46L46 61.2Z" fill="white"/>
<path d="M0 29.5V61.2H31.7L0 29.5Z" fill="white"/>
<path d="M21.5 7.79999L29 19.8H29.1V7.79999H32.8V25.8H28.8L21.3 13.8H21.2V25.8H17.5V7.79999H21.5Z" fill="white"/>
<path d="M49.6998 7.79998V11.1H40.1998V15H48.8998V18H40.1998V22.4H49.8998V25.7H36.2998V7.69998H49.6998V7.79998Z" fill="white"/>
<path d="M51.2002 11.1V7.79999H65.9002V11.1H60.5002V25.8H56.5002V11.1H51.2002Z" fill="white"/>
<path d="M76.0999 7.79999C77.1999 7.79999 78.1999 7.99999 78.9999 8.29999C79.7999 8.59999 80.3999 9.09999 80.8999 9.59999C81.3999 10.1 81.7999 10.8 81.9999 11.4C82.1999 12.1 82.2999 12.8 82.2999 13.5C82.2999 14.2 82.1999 14.9 81.9999 15.6C81.7999 16.3 81.3999 16.9 80.8999 17.5C80.3999 18 79.7999 18.5 78.9999 18.8C78.1999 19.1 77.2999 19.3 76.0999 19.3H71.8999V25.8H67.8999V7.79999H76.0999ZM74.9999 16.2C75.4999 16.2 75.8999 16.2 76.2999 16.1C76.6999 16 77.0999 15.9 77.3999 15.7C77.6999 15.5 77.9999 15.2 78.1999 14.9C78.3999 14.5 78.4999 14.1 78.4999 13.5C78.4999 12.9 78.3999 12.5 78.1999 12.1C77.9999 11.7 77.7999 11.5 77.3999 11.3C77.0999 11.1 76.6999 11 76.2999 10.9C75.8999 10.8 75.3999 10.8 74.9999 10.8H71.8999V16.2H74.9999Z" fill="white"/>
<path d="M94.4998 7.79998C95.2998 7.79998 95.9998 7.89998 96.6998 8.19998C97.2998 8.49998 97.8998 8.79998 98.3998 9.29998C98.8998 9.79998 99.1998 10.3 99.4998 10.9C99.6998 11.5 99.8998 12.1 99.8998 12.8C99.8998 13.9 99.6998 14.8 99.1998 15.5C98.7998 16.3 97.9998 16.9 96.9998 17.3V17.4C97.4998 17.5 97.8998 17.7 98.1998 18C98.4998 18.3 98.7998 18.6 98.9998 19C99.1998 19.4 99.2998 19.8 99.3998 20.2C99.4998 20.7 99.5998 21.1 99.5998 21.6C99.5998 21.9 99.5998 22.2 99.6998 22.6C99.6998 23 99.6998 23.4 99.7998 23.8C99.7998 24.2 99.8998 24.6 99.9998 24.9C100.1 25.3 100.2 25.6 100.4 25.8H96.3998C96.1998 25.2 95.9998 24.5 95.9998 23.8C95.8998 23 95.8998 22.3 95.7998 21.5C95.6998 20.6 95.3998 19.9 94.8998 19.4C94.4998 19 93.6998 18.7 92.7998 18.7H88.7998V25.7H84.7998V7.69998H94.4998V7.79998ZM93.0998 15.9C93.9998 15.9 94.6998 15.7 95.0998 15.3C95.5998 14.9 95.7998 14.2 95.7998 13.3C95.7998 12.4 95.5998 11.8 95.0998 11.4C94.5998 11 93.9998 10.8 93.0998 10.8H88.7998V15.9H93.0998Z" fill="white"/>
<path d="M102.8 13.1C103.2 11.9 103.8 10.9 104.5 10.1C105.3 9.19999 106.2 8.59999 107.3 8.09999C108.4 7.59999 109.6 7.39999 111 7.39999C112.4 7.39999 113.6 7.59999 114.7 8.09999C115.8 8.59999 116.7 9.29999 117.5 10.1C118.3 11 118.8 12 119.2 13.1C119.6 14.3 119.8 15.5 119.8 16.8C119.8 18.1 119.6 19.3 119.2 20.5C118.8 21.6 118.2 22.6 117.5 23.5C116.7 24.3 115.8 25 114.7 25.5C113.6 26 112.4 26.2 111 26.2C109.6 26.2 108.4 26 107.3 25.5C106.2 25 105.3 24.4 104.5 23.5C103.7 22.7 103.2 21.7 102.8 20.5C102.4 19.4 102.2 18.1 102.2 16.8C102.2 15.5 102.4 14.2 102.8 13.1ZM106.4 19C106.6 19.7 106.9 20.4 107.2 20.9C107.6 21.5 108.1 21.9 108.7 22.3C109.3 22.6 110.1 22.8 111 22.8C111.9 22.8 112.6 22.6 113.3 22.3C113.9 22 114.4 21.5 114.8 20.9C115.2 20.3 115.5 19.7 115.6 19C115.8 18.3 115.9 17.6 115.9 16.8C115.9 16 115.8 15.2 115.6 14.5C115.4 13.8 115.1 13.1 114.8 12.5C114.4 11.9 113.9 11.5 113.3 11.1C112.7 10.8 111.9 10.6 111 10.6C110.1 10.6 109.4 10.8 108.7 11.1C108.1 11.4 107.6 11.9 107.2 12.5C106.8 13.1 106.5 13.7 106.4 14.5C106.2 15.2 106.1 16 106.1 16.8C106.1 17.6 106.2 18.3 106.4 19Z" fill="white"/>
<path d="M24.9001 43.3C24.3001 43.6 23.6001 43.7 23.0001 43.7C22.0001 43.7 21.1001 43.5 20.3001 43.2C19.5001 42.8 18.8001 42.4 18.3001 41.7C17.7001 41.1 17.3001 40.4 17.0001 39.5C16.7001 38.7 16.6001 37.8 16.6001 36.8C16.6001 35.8 16.7001 34.9 17.0001 34.1C17.3001 33.3 17.7001 32.5 18.3001 31.9C18.9001 31.3 19.5001 30.8 20.3001 30.4C21.1001 30 22.0001 29.9 23.0001 29.9C23.7001 29.9 24.3001 30 25.0001 30.2C25.6001 30.4 26.2001 30.7 26.7001 31.1C27.2001 31.5 27.6001 32 28.0001 32.6C28.3001 33.2 28.5001 33.8 28.6001 34.6H25.8001C25.6001 33.9 25.3001 33.3 24.8001 32.9C24.3001 32.5 23.7001 32.3 23.0001 32.3C22.3001 32.3 21.8001 32.4 21.3001 32.7C20.8001 33 20.5001 33.3 20.2001 33.7C19.9001 34.1 19.7001 34.6 19.6001 35.2C19.5001 35.7 19.4001 36.3 19.4001 36.9C19.4001 37.5 19.5001 38 19.6001 38.5C19.7001 39 19.9001 39.5 20.2001 39.9C20.5001 40.3 20.9001 40.7 21.3001 40.9C21.8001 41.2 22.3001 41.3 23.0001 41.3C24.0001 41.3 24.7001 41.1 25.2001 40.6C25.7001 40.1 26.0001 39.4 26.1001 38.5H23.2001V36.3H28.8001V43.4H27.0001L26.7001 41.9C26.2001 42.5 25.6001 43 24.9001 43.3Z" fill="white"/>
<path d="M38.3001 30.1C38.9001 30.1 39.4001 30.2 39.9001 30.4C40.4001 30.6 40.8001 30.9 41.1001 31.2C41.4001 31.5 41.7001 31.9 41.9001 32.4C42.1001 32.8 42.2001 33.3 42.2001 33.8C42.2001 34.6 42.0001 35.3 41.7001 35.8C41.4001 36.4 40.8001 36.8 40.1001 37.1C40.5001 37.2 40.8001 37.3 41.0001 37.6C41.2001 37.8 41.4001 38 41.6001 38.3C41.7001 38.6 41.9001 38.9 41.9001 39.2C42.0001 39.5 42.0001 39.9 42.0001 40.2C42.0001 40.4 42.0001 40.7 42.0001 40.9C42.0001 41.2 42.0001 41.5 42.1001 41.8C42.1001 42.1 42.2001 42.4 42.2001 42.6C42.3001 42.9 42.4001 43.1 42.5001 43.3H39.6001C39.4001 42.9 39.3001 42.4 39.3001 41.8C39.3001 41.2 39.2001 40.7 39.1001 40.1C39.0001 39.4 38.8001 38.9 38.5001 38.6C38.2001 38.3 37.7001 38.1 36.9001 38.1H34.0001V43.3H31.1001V30.1H38.3001ZM37.3001 36.1C38.0001 36.1 38.5001 36 38.8001 35.7C39.1001 35.4 39.3001 34.9 39.3001 34.3C39.3001 33.7 39.1001 33.2 38.8001 32.9C38.5001 32.6 38.0001 32.5 37.3001 32.5H34.1001V36.2H37.3001V36.1Z" fill="white"/>
<path d="M44.4 34.1C44.7 33.3 45.1 32.5 45.7 31.9C46.3 31.3 46.9 30.8 47.7 30.4C48.5 30 49.4 29.9 50.4 29.9C51.4 29.9 52.3 30.1 53.1 30.4C53.9 30.8 54.6 31.3 55.1 31.9C55.7 32.5 56.1 33.3 56.4 34.1C56.7 34.9 56.8 35.9 56.8 36.8C56.8 37.8 56.7 38.7 56.4 39.5C56.1 40.3 55.7 41.1 55.1 41.7C54.5 42.3 53.9 42.8 53.1 43.2C52.3 43.6 51.4 43.7 50.4 43.7C49.4 43.7 48.5 43.5 47.7 43.2C46.9 42.8 46.2 42.4 45.7 41.7C45.1 41.1 44.7 40.4 44.4 39.5C44.1 38.7 44 37.8 44 36.8C44 35.8 44.1 34.9 44.4 34.1ZM47.1 38.4C47.2 38.9 47.4 39.4 47.7 39.8C48 40.2 48.4 40.6 48.8 40.8C49.3 41.1 49.8 41.2 50.5 41.2C51.2 41.2 51.7 41.1 52.2 40.8C52.7 40.5 53 40.2 53.3 39.8C53.6 39.4 53.8 38.9 53.9 38.4C54 37.9 54.1 37.3 54.1 36.8C54.1 36.2 54 35.7 53.9 35.1C53.8 34.6 53.6 34.1 53.3 33.6C53 33.2 52.6 32.8 52.2 32.6C51.7 32.3 51.2 32.2 50.5 32.2C49.8 32.2 49.3 32.3 48.8 32.6C48.3 32.9 48 33.2 47.7 33.6C47.4 34 47.2 34.5 47.1 35.1C47 35.6 46.9 36.2 46.9 36.8C46.9 37.4 46.9 37.9 47.1 38.4Z" fill="white"/>
<path d="M68.6999 42.4C67.6999 43.3 66.2999 43.7 64.5999 43.7C62.7999 43.7 61.3999 43.3 60.3999 42.4C59.3999 41.5 58.8999 40.2 58.8999 38.4V30.2H61.7999V38.4C61.7999 38.8 61.7999 39.1 61.8999 39.5C61.9999 39.8 62.0999 40.2 62.2999 40.4C62.4999 40.7 62.7999 40.9 63.0999 41C63.3999 41.1 63.8999 41.2 64.4999 41.2C65.4999 41.2 66.2999 41 66.5999 40.5C66.9999 40 67.1999 39.3 67.1999 38.3V30.1H70.0999V38.3C70.1999 40.2 69.6999 41.5 68.6999 42.4Z" fill="white"/>
<path d="M78.6001 30.1C79.4001 30.1 80.1001 30.2 80.7001 30.5C81.3001 30.7 81.8001 31.1 82.1001 31.5C82.5001 31.9 82.7001 32.3 82.9001 32.9C83.1001 33.4 83.1001 33.9 83.1001 34.5C83.1001 35 83.0001 35.6 82.9001 36.1C82.7001 36.6 82.5001 37.1 82.1001 37.5C81.7001 37.9 81.3001 38.2 80.7001 38.5C80.1001 38.7 79.4001 38.9 78.6001 38.9H75.5001V43.6H72.6001V30.1H78.6001ZM77.8001 36.4C78.1001 36.4 78.5001 36.4 78.8001 36.3C79.1001 36.3 79.4001 36.2 79.6001 36C79.8001 35.9 80.0001 35.7 80.2001 35.4C80.3001 35.1 80.4001 34.8 80.4001 34.4C80.4001 34 80.3001 33.6 80.2001 33.4C80.1001 33.1 79.9001 32.9 79.6001 32.8C79.4001 32.7 79.1001 32.6 78.8001 32.5C78.5001 32.5 78.2001 32.4 77.8001 32.4H75.5001V36.4H77.8001Z" fill="white"/>
<path d="M2.2001 66.3C2.4001 66.3 2.6001 66.3 2.8001 66.4C3.0001 66.5 3.1001 66.6 3.2001 66.7C3.3001 66.8 3.4001 66.9 3.4001 67.1C3.4001 67.2 3.5001 67.4 3.5001 67.5C3.5001 67.6 3.5001 67.8 3.4001 67.9C3.4001 68 3.3001 68.2 3.2001 68.3C3.1001 68.4 3.0001 68.5 2.8001 68.5C2.6001 68.6 2.4001 68.6 2.2001 68.6H1.4001V69.9H0.600098V66.3H2.2001ZM2.0001 68C2.1001 68 2.2001 68 2.3001 68C2.4001 68 2.5001 68 2.5001 67.9C2.6001 67.9 2.6001 67.8 2.7001 67.7C2.7001 67.6 2.8001 67.5 2.8001 67.4C2.8001 67.3 2.8001 67.2 2.7001 67.1C2.7001 67 2.6001 67 2.5001 66.9C2.4001 67 2.3001 67 2.3001 67C2.2001 67 2.1001 67 2.0001 67H1.4001V68H2.0001Z" fill="white"/>
<path d="M3.90029 68.1C4.00029 67.9 4.10029 67.8 4.20029 67.7C4.30029 67.6 4.50029 67.5 4.60029 67.4C4.80029 67.3 5.00029 67.3 5.20029 67.3C5.40029 67.3 5.60029 67.3 5.80029 67.4C6.00029 67.5 6.10029 67.6 6.20029 67.7C6.30029 67.8 6.40029 68 6.50029 68.1C6.60029 68.3 6.60029 68.5 6.60029 68.7C6.60029 68.9 6.60029 69.1 6.50029 69.3C6.40029 69.5 6.30029 69.6 6.20029 69.7C6.10029 69.8 5.90029 69.9 5.80029 70C5.60029 70 5.40029 70 5.20029 70C5.00029 70 4.80029 70 4.60029 69.9C4.40029 69.8 4.30029 69.7 4.20029 69.6C4.10029 69.5 4.00029 69.3 3.90029 69.2C3.80029 69 3.80029 68.8 3.80029 68.6C3.80029 68.4 3.80029 68.2 3.90029 68.1ZM4.60029 68.9C4.60029 69 4.70029 69.1 4.70029 69.2C4.70029 69.3 4.80029 69.3 4.90029 69.4C5.00029 69.4 5.10029 69.5 5.20029 69.5C5.30029 69.5 5.40029 69.5 5.50029 69.4C5.60029 69.4 5.60029 69.3 5.70029 69.2C5.70029 69.1 5.80029 69 5.80029 68.9C5.80029 68.8 5.80029 68.7 5.80029 68.6C5.80029 68.5 5.80029 68.4 5.80029 68.3C5.80029 68.2 5.70029 68.1 5.70029 68C5.70029 67.9 5.60029 67.9 5.50029 67.8C5.40029 67.8 5.30029 67.7 5.20029 67.7C5.10029 67.7 5.00029 67.7 4.90029 67.8C4.80029 67.8 4.80029 67.9 4.70029 68C4.70029 68.1 4.60029 68.2 4.60029 68.3C4.60029 68.4 4.60029 68.5 4.60029 68.6C4.50029 68.7 4.50029 68.8 4.60029 68.9Z" fill="white"/>
<path d="M9.20029 69.9L8.70029 68.1L8.30029 69.9H7.60029L6.80029 67.3H7.60029L8.00029 69.1L8.40029 67.3H9.10029L9.50029 69.1L10.0003 67.3H10.7003L10.0003 69.9H9.20029Z" fill="white"/>
<path d="M11.9 69.3C12 69.4 12.2 69.5 12.4 69.5C12.5 69.5 12.7 69.5 12.8 69.4C12.9 69.3 13 69.3 13 69.2H13.6C13.5 69.5 13.3 69.7 13.1 69.9C12.9 70 12.6 70.1 12.3 70.1C12.1 70.1 11.9 70.1 11.7 70C11.5 69.9 11.4 69.8 11.3 69.7C11.2 69.6 11.1 69.4 11 69.3C11 69 11 68.8 11 68.6C11 68.4 11 68.2 11.1 68.1C11.2 67.9 11.3 67.8 11.4 67.7C11.5 67.6 11.7 67.5 11.8 67.4C12 67.3 12.1 67.3 12.3 67.3C12.5 67.3 12.7 67.3 12.9 67.4C13.1 67.5 13.2 67.6 13.3 67.7C13.4 67.8 13.5 68 13.5 68.2C13.5 68.4 13.6 68.6 13.6 68.8H11.7C11.7 69 11.8 69.2 11.9 69.3ZM12.7 67.9C12.6 67.8 12.5 67.8 12.3 67.8C12.2 67.8 12.1 67.8 12 67.9C11.9 67.9 11.9 68 11.8 68C11.8 68.1 11.7 68.1 11.7 68.2C11.7 68.3 11.7 68.3 11.7 68.4H12.9C12.8 68.2 12.8 68 12.7 67.9Z" fill="white"/>
<path d="M14.7 67.3V67.8C14.7 67.7 14.8 67.6 14.8 67.6C14.9 67.5 14.9 67.5 15 67.4C15.1 67.4 15.2 67.3 15.2 67.3C15.3 67.3 15.4 67.3 15.5 67.3C15.5 67.3 15.6 67.3 15.7 67.3V68H15.6H15.5C15.4 68 15.3 68 15.2 68.1C15.1 68.1 15 68.2 15 68.3C14.9 68.4 14.9 68.5 14.9 68.6C14.9 68.7 14.9 68.8 14.9 68.9V70.1H14V67.5H14.7V67.3Z" fill="white"/>
<path d="M20 66.3V67H18.3V67.8H19.8V68.4H18.3V69.9H17.5V66.3H20Z" fill="white"/>
<path d="M20.4003 68.1C20.5003 67.9 20.6003 67.8 20.7003 67.7C20.8003 67.6 21.0003 67.5 21.1003 67.4C21.3003 67.3 21.5003 67.3 21.7003 67.3C21.9003 67.3 22.1003 67.3 22.3003 67.4C22.5003 67.5 22.6003 67.6 22.7003 67.7C22.8003 67.8 22.9003 68 23.0003 68.1C23.1003 68.3 23.1003 68.5 23.1003 68.7C23.1003 68.9 23.1003 69.1 23.0003 69.3C22.9003 69.5 22.8003 69.6 22.7003 69.7C22.6003 69.8 22.4003 69.9 22.3003 70C22.1003 70 21.9003 70 21.7003 70C21.5003 70 21.3003 70 21.1003 69.9C20.9003 69.8 20.8003 69.7 20.7003 69.6C20.6003 69.5 20.5003 69.3 20.4003 69.2C20.3003 69 20.3003 68.8 20.3003 68.6C20.3003 68.4 20.3003 68.2 20.4003 68.1ZM21.1003 68.9C21.1003 69 21.2003 69.1 21.2003 69.2C21.2003 69.3 21.3003 69.3 21.4003 69.4C21.5003 69.4 21.6003 69.5 21.7003 69.5C21.8003 69.5 21.9003 69.5 22.0003 69.4C22.1003 69.4 22.1003 69.3 22.2003 69.2C22.2003 69.1 22.3003 69 22.3003 68.9C22.3003 68.8 22.3003 68.7 22.3003 68.6C22.3003 68.5 22.3003 68.4 22.3003 68.3C22.3003 68.2 22.2003 68.1 22.2003 68C22.2003 67.9 22.1003 67.9 22.0003 67.8C21.9003 67.8 21.8003 67.7 21.7003 67.7C21.6003 67.7 21.5003 67.7 21.4003 67.8C21.3003 67.8 21.3003 67.9 21.2003 68C21.2003 68.1 21.1003 68.2 21.1003 68.3C21.1003 68.4 21.1003 68.5 21.1003 68.6C21.0003 68.7 21.0003 68.8 21.1003 68.9Z" fill="white"/>
<path d="M24.2002 67.3V67.8C24.2002 67.7 24.3002 67.6 24.3002 67.6C24.4002 67.5 24.4002 67.5 24.5002 67.4C24.6002 67.4 24.7002 67.3 24.7002 67.3C24.8002 67.3 24.9002 67.3 25.0002 67.3C25.0002 67.3 25.1002 67.3 25.2002 67.3V68H25.1002H25.0002C24.9002 68 24.8002 68 24.7002 68.1C24.6002 68.1 24.5002 68.2 24.5002 68.3C24.4002 68.4 24.4002 68.5 24.4002 68.6C24.4002 68.7 24.4002 68.8 24.4002 68.9V70.1H23.7002V67.5H24.2002V67.3Z" fill="white"/>
<path d="M26.5 66.3H27.4L28.2 67.7L29 66.3H30L28.7 68.5V69.9H27.9V68.5L26.5 66.3Z" fill="white"/>
<path d="M29.7 68.1C29.8 67.9 29.9 67.8 30 67.7C30.1 67.6 30.3 67.5 30.4 67.4C30.6 67.3 30.8 67.3 31 67.3C31.2 67.3 31.4 67.3 31.6 67.4C31.8 67.5 31.9 67.6 32 67.7C32.1 67.8 32.2 68 32.3 68.1C32.4 68.3 32.4 68.5 32.4 68.7C32.4 68.9 32.4 69.1 32.3 69.3C32.2 69.5 32.1 69.6 32 69.7C31.9 69.8 31.7 69.9 31.6 70C31.3 70 31.2 70 30.9 70C30.6 70 30.5 70 30.3 69.9C30.1 69.8 30 69.7 29.9 69.6C29.8 69.5 29.7 69.3 29.6 69.2C29.5 69 29.5 68.8 29.5 68.6C29.6 68.4 29.6 68.2 29.7 68.1ZM30.3 68.9C30.3 69 30.4 69.1 30.4 69.2C30.4 69.3 30.5 69.3 30.6 69.4C30.7 69.4 30.8 69.5 30.9 69.5C31 69.5 31.1 69.5 31.2 69.4C31.3 69.4 31.3 69.3 31.4 69.2C31.4 69.1 31.5 69 31.5 68.9C31.5 68.8 31.5 68.7 31.5 68.6C31.5 68.5 31.5 68.4 31.5 68.3C31.5 68.2 31.4 68.1 31.4 68C31.4 67.9 31.3 67.9 31.2 67.8C31.1 67.8 31 67.7 30.9 67.7C30.8 67.7 30.7 67.7 30.6 67.8C30.5 67.8 30.5 67.9 30.4 68C30.4 68.1 30.3 68.2 30.3 68.3C30.3 68.4 30.3 68.5 30.3 68.6C30.3 68.7 30.3 68.8 30.3 68.9Z" fill="white"/>
<path d="M34.5003 69.9V69.5C34.4003 69.7 34.3003 69.8 34.1003 69.8C34.0003 70 33.9003 70 33.7003 70C33.5003 70 33.3003 70 33.2003 69.9C33.1003 69.8 33.0003 69.8 32.9003 69.7C32.8003 69.6 32.8003 69.5 32.8003 69.4C32.8003 69.3 32.8003 69.1 32.8003 69V67.4H33.5003V68.9C33.5003 69.1 33.5003 69.3 33.6003 69.4C33.7003 69.5 33.8003 69.6 34.0003 69.6C34.2003 69.6 34.3003 69.5 34.4003 69.4C34.5003 69.3 34.5003 69.1 34.5003 68.8V67.4H35.2003V70H34.5003V69.9Z" fill="white"/>
<path d="M36.5 67.3V67.8C36.5 67.7 36.6 67.6 36.6 67.6C36.7 67.5 36.7 67.5 36.8 67.4C36.9 67.4 37 67.3 37 67.3C37.1 67.3 37.2 67.3 37.3 67.3C37.3 67.3 37.4 67.3 37.5 67.3V68H37.4H37.3C37.2 68 37.1 68 37 68.1C36.9 68.1 36.8 68.2 36.8 68.3C36.7 68.4 36.7 68.5 36.7 68.6C36.7 68.7 36.7 68.8 36.7 68.9V70.1H36V67.5H36.5V67.3Z" fill="white"/>
<path d="M40.9002 66.3C41.1002 66.3 41.2002 66.3 41.4002 66.3C41.5002 66.3 41.7002 66.4 41.8002 66.4C41.9002 66.5 42.0002 66.6 42.0002 66.7C42.1002 66.8 42.1002 67 42.1002 67.1C42.1002 67.3 42.1002 67.4 42.0002 67.6C41.9002 67.7 41.8002 67.8 41.6002 67.9C41.8002 68 42.0002 68.1 42.1002 68.2C42.2002 68.4 42.3002 68.6 42.3002 68.8C42.3002 69 42.3002 69.1 42.2002 69.3C42.1002 69.4 42.0002 69.5 41.9002 69.6C41.8002 69.7 41.6002 69.7 41.5002 69.8C41.3002 69.8 41.2002 69.9 41.0002 69.9H39.2002V66.3H40.9002ZM40.8002 67.8C40.9002 67.8 41.1002 67.8 41.1002 67.7C41.2002 67.6 41.2002 67.5 41.2002 67.4C41.2002 67.3 41.2002 67.2 41.2002 67.2C41.2002 67.1 41.1002 67.1 41.1002 67.1C41.1002 67 41.0002 67 41.0002 67C40.9002 67 40.9002 67 40.8002 67H40.0002V67.8H40.8002ZM40.9002 69.3C41.0002 69.3 41.1002 69.3 41.1002 69.3C41.2002 69.3 41.2002 69.3 41.3002 69.2C41.4002 69.2 41.4002 69.1 41.4002 69.1C41.4002 69 41.4002 69 41.4002 68.9C41.4002 68.7 41.3002 68.6 41.2002 68.5C41.1002 68.4 41.0002 68.4 40.8002 68.4H40.0002V69.4H40.9002V69.3Z" fill="white"/>
<path d="M44.5003 69.9V69.5C44.4003 69.7 44.3003 69.8 44.1003 69.8C44.0003 70 43.8003 70 43.7003 70C43.5003 70 43.3003 70 43.2003 69.9C43.1003 69.8 43.0003 69.8 42.9003 69.7C42.8003 69.6 42.8003 69.5 42.8003 69.4C42.8003 69.3 42.8003 69.1 42.8003 69V67.4H43.5003V68.9C43.5003 69.1 43.5003 69.3 43.6003 69.4C43.7003 69.5 43.8003 69.6 44.0003 69.6C44.2003 69.6 44.3003 69.5 44.4003 69.4C44.5003 69.3 44.5003 69.1 44.5003 68.8V67.4H45.2003V70H44.5003V69.9Z" fill="white"/>
<path d="M46.3001 69.3C46.3001 69.4 46.4001 69.4 46.4001 69.4C46.5001 69.4 46.5001 69.5 46.6001 69.5C46.7001 69.5 46.7001 69.5 46.8001 69.5C46.9001 69.5 46.9001 69.5 47.0001 69.5C47.1001 69.5 47.1001 69.5 47.2001 69.4L47.3001 69.3C47.3001 69.3 47.3001 69.2 47.3001 69.1C47.3001 69 47.2001 68.9 47.1001 68.9C47.0001 68.8 46.8001 68.8 46.5001 68.7C46.4001 68.7 46.3001 68.6 46.2001 68.6C46.1001 68.6 46.0001 68.5 45.9001 68.5C45.8001 68.4 45.8001 68.4 45.7001 68.3C45.7001 68.2 45.6001 68.1 45.6001 68C45.6001 67.8 45.6001 67.7 45.7001 67.6C45.8001 67.5 45.9001 67.4 46.0001 67.3C46.1001 67.2 46.2001 67.2 46.4001 67.2C46.5001 67.2 46.7001 67.2 46.8001 67.2C46.9001 67.2 47.1001 67.2 47.2001 67.2C47.3001 67.2 47.5001 67.3 47.6001 67.3C47.7001 67.4 47.8001 67.4 47.9001 67.6C48.0001 67.7 48.0001 67.8 48.0001 68H47.3001C47.3001 67.9 47.2001 67.8 47.1001 67.7C47.0001 67.7 46.9001 67.6 46.8001 67.6H46.7001H46.6001C46.6001 67.6 46.5001 67.6 46.5001 67.7V67.8C46.5001 67.9 46.5001 67.9 46.6001 68C46.6001 68 46.7001 68.1 46.8001 68.1C46.9001 68.1 47.0001 68.1 47.1001 68.2C47.2001 68.2 47.3001 68.2 47.4001 68.3C47.5001 68.3 47.6001 68.4 47.7001 68.4C47.8001 68.4 47.9001 68.5 48.0001 68.5C48.1001 68.6 48.1001 68.6 48.2001 68.7C48.2001 68.8 48.3001 68.9 48.3001 69C48.3001 69.2 48.3001 69.3 48.2001 69.4C48.1001 69.5 48.0001 69.6 47.9001 69.7C47.8001 69.8 47.7001 69.8 47.5001 69.8C47.3001 69.8 47.2001 69.8 47.1001 69.8C46.9001 69.8 46.8001 69.8 46.7001 69.8C46.6001 69.8 46.4001 69.7 46.3001 69.6C46.2001 69.5 46.1001 69.4 46.0001 69.3C45.9001 69.2 45.9001 69 45.9001 68.9H46.6001C46.3001 69.2 46.3001 69.2 46.3001 69.3Z" fill="white"/>
<path d="M48.5 66.9V66.3H49.2V66.9H48.5ZM49.2 67.3V69.9H48.5V67.3H49.2Z" fill="white"/>
<path d="M50.4002 67.3V67.7C50.5002 67.5 50.6002 67.4 50.8002 67.4C50.9002 67.3 51.1002 67.3 51.2002 67.3C51.4002 67.3 51.6002 67.3 51.7002 67.4C51.8002 67.5 51.9002 67.5 52.0002 67.6C52.1002 67.7 52.1002 67.8 52.1002 67.9C52.1002 68 52.1002 68.2 52.1002 68.3V69.9H51.4002V68.4C51.4002 68.2 51.4002 68 51.3002 67.9C51.2002 67.8 51.1002 67.7 50.9002 67.7C50.7002 67.7 50.6002 67.8 50.5002 67.9C50.4002 68 50.4002 68.2 50.4002 68.5V69.9H49.7002V67.3H50.4002Z" fill="white"/>
<path d="M53.5001 69.3C53.6001 69.4 53.8001 69.5 54.0001 69.5C54.1001 69.5 54.3001 69.5 54.4001 69.4C54.5001 69.3 54.6001 69.3 54.6001 69.2H55.2001C55.1001 69.5 54.9001 69.7 54.7001 69.9C54.5001 69.9 54.2001 70 54.0001 70C53.8001 70 53.6001 70 53.4001 69.9C53.2001 69.8 53.1001 69.7 53.0001 69.6C52.9001 69.5 52.8001 69.3 52.7001 69.2C52.6001 69 52.6001 68.8 52.6001 68.6C52.6001 68.4 52.6001 68.2 52.7001 68.1C52.8001 67.9 52.9001 67.8 53.0001 67.7C53.1001 67.6 53.3001 67.5 53.4001 67.4C53.6001 67.3 53.7001 67.3 53.9001 67.3C54.1001 67.3 54.3001 67.3 54.5001 67.4C54.7001 67.5 54.8001 67.6 54.9001 67.7C55.0001 67.8 55.1001 68 55.1001 68.2C55.1001 68.4 55.2001 68.6 55.2001 68.8H53.3001C53.3001 69 53.4001 69.2 53.5001 69.3ZM54.3001 67.9C54.2001 67.8 54.1001 67.8 53.9001 67.8C53.8001 67.8 53.7001 67.8 53.6001 67.9C53.5001 67.9 53.5001 68 53.4001 68C53.3001 68 53.3001 68.1 53.3001 68.2C53.3001 68.3 53.3001 68.3 53.3001 68.4H54.5001C54.5001 68.2 54.4001 68 54.3001 67.9Z" fill="white"/>
<path d="M56.3001 69.3C56.3001 69.4 56.4001 69.4 56.4001 69.4C56.5001 69.4 56.5001 69.5 56.6001 69.5C56.7001 69.5 56.7001 69.5 56.8001 69.5C56.9001 69.5 56.9001 69.5 57.0001 69.5C57.1001 69.5 57.1001 69.5 57.2001 69.4L57.3001 69.3C57.3001 69.3 57.3001 69.2 57.3001 69.1C57.3001 69 57.2001 68.9 57.1001 68.9C57.0001 68.8 56.8001 68.8 56.5001 68.7C56.4001 68.7 56.3001 68.6 56.2001 68.6C56.1001 68.6 56.0001 68.5 55.9001 68.5C55.8001 68.4 55.8001 68.4 55.7001 68.3C55.7001 68.2 55.6001 68.1 55.6001 68C55.6001 67.8 55.6001 67.7 55.7001 67.6C55.8001 67.5 55.9001 67.4 56.0001 67.3C56.1001 67.2 56.2001 67.2 56.4001 67.2C56.5001 67.2 56.7001 67.2 56.8001 67.2C56.9001 67.2 57.1001 67.2 57.2001 67.2C57.3001 67.2 57.5001 67.3 57.6001 67.3C57.7001 67.4 57.8001 67.4 57.9001 67.6C58.0001 67.7 58.0001 67.8 58.0001 68H57.3001C57.3001 67.9 57.2001 67.8 57.1001 67.7C57.0001 67.7 56.9001 67.6 56.8001 67.6H56.7001H56.6001C56.6001 67.6 56.5001 67.6 56.5001 67.7V67.8C56.5001 67.9 56.5001 67.9 56.6001 68C56.6001 68 56.7001 68.1 56.8001 68.1C56.9001 68.1 57.0001 68.1 57.1001 68.2C57.2001 68.2 57.3001 68.2 57.4001 68.3C57.5001 68.3 57.6001 68.4 57.7001 68.4C57.8001 68.4 57.9001 68.5 58.0001 68.5C58.1001 68.6 58.1001 68.6 58.2001 68.7C58.2001 68.8 58.3001 68.9 58.3001 69C58.3001 69.2 58.3001 69.3 58.2001 69.4C58.1001 69.5 58.0001 69.6 57.9001 69.7C57.8001 69.8 57.7001 69.8 57.5001 69.8C57.3001 69.8 57.2001 69.8 57.1001 69.8C56.9001 69.8 56.8001 69.8 56.7001 69.8C56.6001 69.8 56.4001 69.7 56.3001 69.6C56.2001 69.5 56.1001 69.4 56.0001 69.3C55.9001 69.2 55.9001 69 55.9001 68.9H56.6001C56.2001 69.2 56.2001 69.2 56.3001 69.3Z" fill="white"/>
<path d="M59.0003 69.3C59.0003 69.4 59.1003 69.4 59.1003 69.4C59.2003 69.4 59.2003 69.5 59.3003 69.5C59.4003 69.5 59.4003 69.5 59.5003 69.5C59.6003 69.5 59.6003 69.5 59.7003 69.5C59.8003 69.5 59.8003 69.5 59.9003 69.4L60.0003 69.3C60.0003 69.3 60.0003 69.2 60.0003 69.1C60.0003 69 59.9003 68.9 59.8003 68.9C59.7003 68.8 59.5003 68.8 59.2003 68.7C59.1003 68.7 59.0003 68.6 58.9003 68.6C58.8003 68.6 58.7003 68.5 58.6003 68.5C58.5003 68.4 58.5003 68.4 58.4003 68.3C58.4003 68.2 58.3003 68.1 58.3003 68C58.3003 67.8 58.3003 67.7 58.4003 67.6C58.5003 67.5 58.6003 67.4 58.7003 67.3C58.8003 67.2 58.9003 67.2 59.1003 67.2C59.2003 67.2 59.4003 67.2 59.5003 67.2C59.6003 67.2 59.8003 67.2 59.9003 67.2C60.0003 67.2 60.2003 67.3 60.3003 67.3C60.4003 67.4 60.5003 67.4 60.6003 67.6C60.7003 67.7 60.7003 67.8 60.7003 68H60.0003C60.0003 67.9 59.9003 67.8 59.8003 67.7C59.7003 67.7 59.6003 67.6 59.5003 67.6H59.4003H59.3003C59.3003 67.6 59.2003 67.6 59.2003 67.7V67.8C59.2003 67.9 59.2003 67.9 59.3003 68C59.3003 68 59.4003 68.1 59.5003 68.1C59.6003 68.1 59.7003 68.1 59.8003 68.2C59.9003 68.2 60.0003 68.2 60.1003 68.3C60.2003 68.3 60.3003 68.4 60.4003 68.4C60.5003 68.4 60.6003 68.5 60.7003 68.5C60.8003 68.6 60.8003 68.6 60.9003 68.7C60.9003 68.8 61.0003 68.9 61.0003 69C61.0003 69.2 61.0003 69.3 60.9003 69.4C60.8003 69.5 60.7003 69.6 60.6003 69.7C60.5003 69.8 60.4003 69.8 60.2003 69.8C60.0003 69.8 59.9003 69.8 59.8003 69.8C59.6003 69.8 59.5003 69.8 59.4003 69.8C59.3003 69.8 59.1003 69.7 59.0003 69.6C58.9003 69.5 58.8003 69.4 58.7003 69.3C58.6003 69.2 58.6003 69 58.6003 68.9H59.3003C58.9003 69.2 58.9003 69.2 59.0003 69.3Z" fill="white"/>
</g>
<defs>
<clipPath id="clip0_344_3662">
<rect width="119.9" height="70" fill="white"/>
</clipPath>
</defs>
</svg>
