<svg width="124" height="80" viewBox="0 0 124 80" fill="none" xmlns="http://www.w3.org/2000/svg">
<path d="M48.7842 5.04492V7.33887H44.9082V18H42.1836V7.33887H38.29V5.04492H48.7842ZM52.6162 10.2305C52.0361 10.2305 51.585 10.4121 51.2627 10.7754C50.9463 11.1387 50.7471 11.6309 50.665 12.252H54.5586C54.5176 11.5898 54.3154 11.0889 53.9521 10.749C53.5947 10.4033 53.1494 10.2305 52.6162 10.2305ZM52.6162 8.16504C53.4131 8.16504 54.1309 8.31445 54.7695 8.61328C55.4082 8.91211 55.9355 9.38379 56.3516 10.0283C56.7266 10.5967 56.9697 11.2559 57.0811 12.0059C57.1455 12.4453 57.1719 13.0781 57.1602 13.9043H50.6035C50.6387 14.8652 50.9404 15.5391 51.5088 15.9258C51.8545 16.166 52.2705 16.2861 52.7568 16.2861C53.2725 16.2861 53.6914 16.1396 54.0137 15.8467C54.1895 15.6885 54.3447 15.4688 54.4795 15.1875H57.0371C56.9727 15.7559 56.6768 16.333 56.1494 16.9189C55.3291 17.8506 54.1807 18.3164 52.7041 18.3164C51.4854 18.3164 50.4102 17.9238 49.4785 17.1387C48.5469 16.3535 48.0811 15.0762 48.0811 13.3066C48.0811 11.6484 48.5 10.377 49.3379 9.49219C50.1816 8.60742 51.2744 8.16504 52.6162 8.16504ZM61.4141 18H58.9092V5.04492H61.4141V18ZM67.6455 10.2305C67.0654 10.2305 66.6143 10.4121 66.292 10.7754C65.9756 11.1387 65.7764 11.6309 65.6943 12.252H69.5879C69.5469 11.5898 69.3447 11.0889 68.9814 10.749C68.624 10.4033 68.1787 10.2305 67.6455 10.2305ZM67.6455 8.16504C68.4424 8.16504 69.1602 8.31445 69.7988 8.61328C70.4375 8.91211 70.9648 9.38379 71.3809 10.0283C71.7559 10.5967 71.999 11.2559 72.1104 12.0059C72.1748 12.4453 72.2012 13.0781 72.1895 13.9043H65.6328C65.668 14.8652 65.9697 15.5391 66.5381 15.9258C66.8838 16.166 67.2998 16.2861 67.7861 16.2861C68.3018 16.2861 68.7207 16.1396 69.043 15.8467C69.2188 15.6885 69.374 15.4688 69.5088 15.1875H72.0664C72.002 15.7559 71.7061 16.333 71.1787 16.9189C70.3584 17.8506 69.21 18.3164 67.7334 18.3164C66.5146 18.3164 65.4395 17.9238 64.5078 17.1387C63.5762 16.3535 63.1104 15.0762 63.1104 13.3066C63.1104 11.6484 63.5293 10.377 64.3672 9.49219C65.2109 8.60742 66.3037 8.16504 67.6455 8.16504ZM77.4189 4.91309C77.5771 4.91309 77.7207 4.91895 77.8496 4.93066C77.9785 4.93652 78.1543 4.94824 78.377 4.96582V7.00488C78.2363 6.9873 77.999 6.97559 77.665 6.96973C77.3369 6.95801 77.1084 7.03125 76.9795 7.18945C76.8564 7.3418 76.7949 7.51172 76.7949 7.69922C76.7949 7.88672 76.7949 8.15625 76.7949 8.50781H78.4385V10.2744H76.7949V18H74.2988V10.2744H72.9014V8.50781H74.2725V7.89258C74.2725 6.86719 74.4453 6.16113 74.791 5.77441C75.1543 5.2002 76.0303 4.91309 77.4189 4.91309ZM84.1777 16.2334C84.9102 16.2334 85.4727 15.9727 85.8652 15.4512C86.2578 14.9297 86.4541 14.1885 86.4541 13.2275C86.4541 12.2666 86.2578 11.5283 85.8652 11.0127C85.4727 10.4912 84.9102 10.2305 84.1777 10.2305C83.4453 10.2305 82.8799 10.4912 82.4814 11.0127C82.0889 11.5283 81.8926 12.2666 81.8926 13.2275C81.8926 14.1885 82.0889 14.9297 82.4814 15.4512C82.8799 15.9727 83.4453 16.2334 84.1777 16.2334ZM89.082 13.2275C89.082 14.6338 88.6777 15.8379 87.8691 16.8398C87.0605 17.8359 85.833 18.334 84.1865 18.334C82.54 18.334 81.3125 17.8359 80.5039 16.8398C79.6953 15.8379 79.291 14.6338 79.291 13.2275C79.291 11.8447 79.6953 10.6465 80.5039 9.63281C81.3125 8.61914 82.54 8.1123 84.1865 8.1123C85.833 8.1123 87.0605 8.61914 87.8691 9.63281C88.6777 10.6465 89.082 11.8447 89.082 13.2275ZM96.1924 8.19141C97.1826 8.19141 97.9912 8.45215 98.6182 8.97363C99.251 9.48926 99.5674 10.3477 99.5674 11.5488V18H97.001V12.1729C97.001 11.6689 96.9336 11.2822 96.7988 11.0127C96.5527 10.5205 96.084 10.2744 95.3926 10.2744C94.543 10.2744 93.96 10.6348 93.6436 11.3555C93.4795 11.7363 93.3975 12.2227 93.3975 12.8145V18H90.9014V8.4375H93.3184V9.83496C93.6406 9.34277 93.9453 8.98828 94.2324 8.77148C94.748 8.38477 95.4014 8.19141 96.1924 8.19141Z" fill="white"/>
<path opacity="0.7" d="M3.71875 47.5781V46.2656H7.125V42.8359H8.46094V46.2656H11.8672V47.5781H8.46094V51H7.125V47.5781H3.71875ZM14.4688 48.2969C14.5104 49.0729 14.8099 49.6094 15.3672 49.9062C15.6536 50.0625 15.9766 50.1406 16.3359 50.1406C17.0078 50.1406 17.5807 49.862 18.0547 49.3047C18.5286 48.7422 18.8646 47.6042 19.0625 45.8906C18.75 46.3854 18.362 46.7344 17.8984 46.9375C17.4401 47.1354 16.9453 47.2344 16.4141 47.2344C15.3359 47.2344 14.4818 46.8984 13.8516 46.2266C13.2266 45.5547 12.9141 44.6901 12.9141 43.6328C12.9141 42.6172 13.224 41.724 13.8438 40.9531C14.4635 40.1823 15.3776 39.7969 16.5859 39.7969C18.2161 39.7969 19.3411 40.5312 19.9609 42C20.3047 42.8073 20.4766 43.8177 20.4766 45.0312C20.4766 46.401 20.2708 47.6146 19.8594 48.6719C19.1771 50.4323 18.0208 51.3125 16.3906 51.3125C15.2969 51.3125 14.4661 51.026 13.8984 50.4531C13.3307 49.8802 13.0469 49.1615 13.0469 48.2969H14.4688ZM16.6016 46C17.1589 46 17.6667 45.8177 18.125 45.4531C18.5885 45.0833 18.8203 44.4401 18.8203 43.5234C18.8203 42.7005 18.612 42.0885 18.1953 41.6875C17.7839 41.2812 17.2578 41.0781 16.6172 41.0781C15.9297 41.0781 15.3828 41.3099 14.9766 41.7734C14.5755 42.2318 14.375 42.8464 14.375 43.6172C14.375 44.3464 14.5521 44.9271 14.9062 45.3594C15.2604 45.7865 15.8255 46 16.6016 46ZM23.375 48.2969C23.4167 49.0729 23.7161 49.6094 24.2734 49.9062C24.5599 50.0625 24.8828 50.1406 25.2422 50.1406C25.9141 50.1406 26.487 49.862 26.9609 49.3047C27.4349 48.7422 27.7708 47.6042 27.9688 45.8906C27.6562 46.3854 27.2682 46.7344 26.8047 46.9375C26.3464 47.1354 25.8516 47.2344 25.3203 47.2344C24.2422 47.2344 23.388 46.8984 22.7578 46.2266C22.1328 45.5547 21.8203 44.6901 21.8203 43.6328C21.8203 42.6172 22.1302 41.724 22.75 40.9531C23.3698 40.1823 24.2839 39.7969 25.4922 39.7969C27.1224 39.7969 28.2474 40.5312 28.8672 42C29.2109 42.8073 29.3828 43.8177 29.3828 45.0312C29.3828 46.401 29.1771 47.6146 28.7656 48.6719C28.0833 50.4323 26.9271 51.3125 25.2969 51.3125C24.2031 51.3125 23.3724 51.026 22.8047 50.4531C22.237 49.8802 21.9531 49.1615 21.9531 48.2969H23.375ZM25.5078 46C26.0651 46 26.5729 45.8177 27.0312 45.4531C27.4948 45.0833 27.7266 44.4401 27.7266 43.5234C27.7266 42.7005 27.5182 42.0885 27.1016 41.6875C26.6901 41.2812 26.1641 41.0781 25.5234 41.0781C24.8359 41.0781 24.2891 41.3099 23.8828 41.7734C23.4818 42.2318 23.2812 42.8464 23.2812 43.6172C23.2812 44.3464 23.4583 44.9271 23.8125 45.3594C24.1667 45.7865 24.7318 46 25.5078 46ZM35.4453 47.0391V41.9688L31.8594 47.0391H35.4453ZM35.4688 51V48.2656H30.5625V46.8906L35.6875 39.7812H36.875V47.0391H38.5234V48.2656H36.875V51H35.4688ZM41.0391 48.1484C41.1328 48.9505 41.5052 49.5052 42.1562 49.8125C42.4896 49.9688 42.875 50.0469 43.3125 50.0469C44.1458 50.0469 44.763 49.7812 45.1641 49.25C45.5651 48.7188 45.7656 48.1302 45.7656 47.4844C45.7656 46.7031 45.526 46.099 45.0469 45.6719C44.5729 45.2448 44.0026 45.0312 43.3359 45.0312C42.8516 45.0312 42.4349 45.125 42.0859 45.3125C41.7422 45.5 41.4479 45.7604 41.2031 46.0938L39.9844 46.0234L40.8359 40H46.6484V41.3594H41.8906L41.4141 44.4688C41.6745 44.2708 41.9219 44.1224 42.1562 44.0234C42.5729 43.8516 43.0547 43.7656 43.6016 43.7656C44.6276 43.7656 45.4974 44.0964 46.2109 44.7578C46.9245 45.4193 47.2812 46.2578 47.2812 47.2734C47.2812 48.3307 46.9531 49.263 46.2969 50.0703C45.6458 50.8776 44.6042 51.2812 43.1719 51.2812C42.2604 51.2812 41.4531 51.026 40.75 50.5156C40.0521 50 39.6615 49.2109 39.5781 48.1484H41.0391ZM52.2969 39.8125C53.7448 39.8125 54.7917 40.4089 55.4375 41.6016C55.9375 42.5234 56.1875 43.7865 56.1875 45.3906C56.1875 46.9115 55.9609 48.1693 55.5078 49.1641C54.8516 50.5911 53.7786 51.3047 52.2891 51.3047C50.9453 51.3047 49.9453 50.7214 49.2891 49.5547C48.7422 48.5807 48.4688 47.2734 48.4688 45.6328C48.4688 44.362 48.6328 43.2708 48.9609 42.3594C49.5755 40.6615 50.6875 39.8125 52.2969 39.8125ZM52.2812 50.0234C53.0104 50.0234 53.5911 49.7005 54.0234 49.0547C54.4557 48.4089 54.6719 47.2057 54.6719 45.4453C54.6719 44.1745 54.5156 43.1302 54.2031 42.3125C53.8906 41.4896 53.2839 41.0781 52.3828 41.0781C51.5547 41.0781 50.9479 41.4688 50.5625 42.25C50.1823 43.026 49.9922 44.1719 49.9922 45.6875C49.9922 46.8281 50.1146 47.7448 50.3594 48.4375C50.7344 49.4948 51.375 50.0234 52.2812 50.0234ZM63.3047 48.1484C63.3984 48.9505 63.7708 49.5052 64.4219 49.8125C64.7552 49.9688 65.1406 50.0469 65.5781 50.0469C66.4115 50.0469 67.0286 49.7812 67.4297 49.25C67.8307 48.7188 68.0312 48.1302 68.0312 47.4844C68.0312 46.7031 67.7917 46.099 67.3125 45.6719C66.8385 45.2448 66.2682 45.0312 65.6016 45.0312C65.1172 45.0312 64.7005 45.125 64.3516 45.3125C64.0078 45.5 63.7135 45.7604 63.4688 46.0938L62.25 46.0234L63.1016 40H68.9141V41.3594H64.1562L63.6797 44.4688C63.9401 44.2708 64.1875 44.1224 64.4219 44.0234C64.8385 43.8516 65.3203 43.7656 65.8672 43.7656C66.8932 43.7656 67.763 44.0964 68.4766 44.7578C69.1901 45.4193 69.5469 46.2578 69.5469 47.2734C69.5469 48.3307 69.2188 49.263 68.5625 50.0703C67.9115 50.8776 66.8698 51.2812 65.4375 51.2812C64.526 51.2812 63.7188 51.026 63.0156 50.5156C62.3177 50 61.9271 49.2109 61.8438 48.1484H63.3047ZM78.6016 40V41.2266C78.2422 41.5755 77.763 42.1823 77.1641 43.0469C76.5703 43.9115 76.0443 44.8438 75.5859 45.8438C75.1328 46.8177 74.7891 47.7057 74.5547 48.5078C74.4036 49.0234 74.2083 49.8542 73.9688 51H72.4141C72.7682 48.8646 73.5495 46.7396 74.7578 44.625C75.4714 43.3854 76.2214 42.3151 77.0078 41.4141H70.8203V40H78.6016ZM81.1172 48.1484C81.2109 48.9505 81.5833 49.5052 82.2344 49.8125C82.5677 49.9688 82.9531 50.0469 83.3906 50.0469C84.224 50.0469 84.8411 49.7812 85.2422 49.25C85.6432 48.7188 85.8438 48.1302 85.8438 47.4844C85.8438 46.7031 85.6042 46.099 85.125 45.6719C84.651 45.2448 84.0807 45.0312 83.4141 45.0312C82.9297 45.0312 82.513 45.125 82.1641 45.3125C81.8203 45.5 81.526 45.7604 81.2812 46.0938L80.0625 46.0234L80.9141 40H86.7266V41.3594H81.9688L81.4922 44.4688C81.7526 44.2708 82 44.1224 82.2344 44.0234C82.651 43.8516 83.1328 43.7656 83.6797 43.7656C84.7057 43.7656 85.5755 44.0964 86.2891 44.7578C87.0026 45.4193 87.3594 46.2578 87.3594 47.2734C87.3594 48.3307 87.0312 49.263 86.375 50.0703C85.724 50.8776 84.6823 51.2812 83.25 51.2812C82.3385 51.2812 81.5312 51.026 80.8281 50.5156C80.1302 50 79.7396 49.2109 79.6562 48.1484H81.1172ZM93.3359 47.0391V41.9688L89.75 47.0391H93.3359ZM93.3594 51V48.2656H88.4531V46.8906L93.5781 39.7812H94.7656V47.0391H96.4141V48.2656H94.7656V51H93.3594ZM101.281 39.8125C102.729 39.8125 103.776 40.4089 104.422 41.6016C104.922 42.5234 105.172 43.7865 105.172 45.3906C105.172 46.9115 104.945 48.1693 104.492 49.1641C103.836 50.5911 102.763 51.3047 101.273 51.3047C99.9297 51.3047 98.9297 50.7214 98.2734 49.5547C97.7266 48.5807 97.4531 47.2734 97.4531 45.6328C97.4531 44.362 97.6172 43.2708 97.9453 42.3594C98.5599 40.6615 99.6719 39.8125 101.281 39.8125ZM101.266 50.0234C101.995 50.0234 102.576 49.7005 103.008 49.0547C103.44 48.4089 103.656 47.2057 103.656 45.4453C103.656 44.1745 103.5 43.1302 103.188 42.3125C102.875 41.4896 102.268 41.0781 101.367 41.0781C100.539 41.0781 99.9323 41.4688 99.5469 42.25C99.1667 43.026 98.9766 44.1719 98.9766 45.6875C98.9766 46.8281 99.099 47.7448 99.3438 48.4375C99.7188 49.4948 100.359 50.0234 101.266 50.0234ZM110.211 44.5C110.831 44.5 111.315 44.3281 111.664 43.9844C112.013 43.6354 112.188 43.2214 112.188 42.7422C112.188 42.3255 112.021 41.9427 111.688 41.5938C111.354 41.2448 110.846 41.0703 110.164 41.0703C109.487 41.0703 108.997 41.2448 108.695 41.5938C108.393 41.9427 108.242 42.3516 108.242 42.8203C108.242 43.3464 108.438 43.7578 108.828 44.0547C109.219 44.3516 109.68 44.5 110.211 44.5ZM110.297 50.0391C110.948 50.0391 111.487 49.8646 111.914 49.5156C112.346 49.1615 112.562 48.6354 112.562 47.9375C112.562 47.2135 112.341 46.6641 111.898 46.2891C111.456 45.9141 110.888 45.7266 110.195 45.7266C109.523 45.7266 108.974 45.9193 108.547 46.3047C108.125 46.6849 107.914 47.2135 107.914 47.8906C107.914 48.474 108.107 48.9792 108.492 49.4062C108.883 49.8281 109.484 50.0391 110.297 50.0391ZM108.297 45.0391C107.906 44.8724 107.602 44.6771 107.383 44.4531C106.971 44.0365 106.766 43.4948 106.766 42.8281C106.766 41.9948 107.068 41.2786 107.672 40.6797C108.276 40.0807 109.133 39.7812 110.242 39.7812C111.315 39.7812 112.156 40.0651 112.766 40.6328C113.375 41.1953 113.68 41.8542 113.68 42.6094C113.68 43.3073 113.503 43.8724 113.148 44.3047C112.951 44.5495 112.643 44.7891 112.227 45.0234C112.69 45.237 113.055 45.4818 113.32 45.7578C113.815 46.2786 114.062 46.9557 114.062 47.7891C114.062 48.7734 113.732 49.6094 113.07 50.2969C112.409 50.9792 111.474 51.3203 110.266 51.3203C109.177 51.3203 108.255 51.026 107.5 50.4375C106.75 49.8438 106.375 48.9844 106.375 47.8594C106.375 47.1979 106.536 46.6276 106.859 46.1484C107.182 45.6641 107.661 45.2943 108.297 45.0391ZM119.094 39.8125C120.542 39.8125 121.589 40.4089 122.234 41.6016C122.734 42.5234 122.984 43.7865 122.984 45.3906C122.984 46.9115 122.758 48.1693 122.305 49.1641C121.648 50.5911 120.576 51.3047 119.086 51.3047C117.742 51.3047 116.742 50.7214 116.086 49.5547C115.539 48.5807 115.266 47.2734 115.266 45.6328C115.266 44.362 115.43 43.2708 115.758 42.3594C116.372 40.6615 117.484 39.8125 119.094 39.8125ZM119.078 50.0234C119.807 50.0234 120.388 49.7005 120.82 49.0547C121.253 48.4089 121.469 47.2057 121.469 45.4453C121.469 44.1745 121.312 43.1302 121 42.3125C120.688 41.4896 120.081 41.0781 119.18 41.0781C118.352 41.0781 117.745 41.4688 117.359 42.25C116.979 43.026 116.789 44.1719 116.789 45.6875C116.789 46.8281 116.911 47.7448 117.156 48.4375C117.531 49.4948 118.172 50.0234 119.078 50.0234Z" fill="white"/>
<path opacity="0.7" d="M3.71875 73.5781V72.2656H7.125V68.8359H8.46094V72.2656H11.8672V73.5781H8.46094V77H7.125V73.5781H3.71875ZM14.4688 74.2969C14.5104 75.0729 14.8099 75.6094 15.3672 75.9062C15.6536 76.0625 15.9766 76.1406 16.3359 76.1406C17.0078 76.1406 17.5807 75.862 18.0547 75.3047C18.5286 74.7422 18.8646 73.6042 19.0625 71.8906C18.75 72.3854 18.362 72.7344 17.8984 72.9375C17.4401 73.1354 16.9453 73.2344 16.4141 73.2344C15.3359 73.2344 14.4818 72.8984 13.8516 72.2266C13.2266 71.5547 12.9141 70.6901 12.9141 69.6328C12.9141 68.6172 13.224 67.724 13.8438 66.9531C14.4635 66.1823 15.3776 65.7969 16.5859 65.7969C18.2161 65.7969 19.3411 66.5312 19.9609 68C20.3047 68.8073 20.4766 69.8177 20.4766 71.0312C20.4766 72.401 20.2708 73.6146 19.8594 74.6719C19.1771 76.4323 18.0208 77.3125 16.3906 77.3125C15.2969 77.3125 14.4661 77.026 13.8984 76.4531C13.3307 75.8802 13.0469 75.1615 13.0469 74.2969H14.4688ZM16.6016 72C17.1589 72 17.6667 71.8177 18.125 71.4531C18.5885 71.0833 18.8203 70.4401 18.8203 69.5234C18.8203 68.7005 18.612 68.0885 18.1953 67.6875C17.7839 67.2812 17.2578 67.0781 16.6172 67.0781C15.9297 67.0781 15.3828 67.3099 14.9766 67.7734C14.5755 68.2318 14.375 68.8464 14.375 69.6172C14.375 70.3464 14.5521 70.9271 14.9062 71.3594C15.2604 71.7865 15.8255 72 16.6016 72ZM23.375 74.2969C23.4167 75.0729 23.7161 75.6094 24.2734 75.9062C24.5599 76.0625 24.8828 76.1406 25.2422 76.1406C25.9141 76.1406 26.487 75.862 26.9609 75.3047C27.4349 74.7422 27.7708 73.6042 27.9688 71.8906C27.6562 72.3854 27.2682 72.7344 26.8047 72.9375C26.3464 73.1354 25.8516 73.2344 25.3203 73.2344C24.2422 73.2344 23.388 72.8984 22.7578 72.2266C22.1328 71.5547 21.8203 70.6901 21.8203 69.6328C21.8203 68.6172 22.1302 67.724 22.75 66.9531C23.3698 66.1823 24.2839 65.7969 25.4922 65.7969C27.1224 65.7969 28.2474 66.5312 28.8672 68C29.2109 68.8073 29.3828 69.8177 29.3828 71.0312C29.3828 72.401 29.1771 73.6146 28.7656 74.6719C28.0833 76.4323 26.9271 77.3125 25.2969 77.3125C24.2031 77.3125 23.3724 77.026 22.8047 76.4531C22.237 75.8802 21.9531 75.1615 21.9531 74.2969H23.375ZM25.5078 72C26.0651 72 26.5729 71.8177 27.0312 71.4531C27.4948 71.0833 27.7266 70.4401 27.7266 69.5234C27.7266 68.7005 27.5182 68.0885 27.1016 67.6875C26.6901 67.2812 26.1641 67.0781 25.5234 67.0781C24.8359 67.0781 24.2891 67.3099 23.8828 67.7734C23.4818 68.2318 23.2812 68.8464 23.2812 69.6172C23.2812 70.3464 23.4583 70.9271 23.8125 71.3594C24.1667 71.7865 24.7318 72 25.5078 72ZM35.4453 73.0391V67.9688L31.8594 73.0391H35.4453ZM35.4688 77V74.2656H30.5625V72.8906L35.6875 65.7812H36.875V73.0391H38.5234V74.2656H36.875V77H35.4688ZM41.0391 74.1484C41.1328 74.9505 41.5052 75.5052 42.1562 75.8125C42.4896 75.9688 42.875 76.0469 43.3125 76.0469C44.1458 76.0469 44.763 75.7812 45.1641 75.25C45.5651 74.7188 45.7656 74.1302 45.7656 73.4844C45.7656 72.7031 45.526 72.099 45.0469 71.6719C44.5729 71.2448 44.0026 71.0312 43.3359 71.0312C42.8516 71.0312 42.4349 71.125 42.0859 71.3125C41.7422 71.5 41.4479 71.7604 41.2031 72.0938L39.9844 72.0234L40.8359 66H46.6484V67.3594H41.8906L41.4141 70.4688C41.6745 70.2708 41.9219 70.1224 42.1562 70.0234C42.5729 69.8516 43.0547 69.7656 43.6016 69.7656C44.6276 69.7656 45.4974 70.0964 46.2109 70.7578C46.9245 71.4193 47.2812 72.2578 47.2812 73.2734C47.2812 74.3307 46.9531 75.263 46.2969 76.0703C45.6458 76.8776 44.6042 77.2812 43.1719 77.2812C42.2604 77.2812 41.4531 77.026 40.75 76.5156C40.0521 76 39.6615 75.2109 39.5781 74.1484H41.0391ZM52.2969 65.8125C53.7448 65.8125 54.7917 66.4089 55.4375 67.6016C55.9375 68.5234 56.1875 69.7865 56.1875 71.3906C56.1875 72.9115 55.9609 74.1693 55.5078 75.1641C54.8516 76.5911 53.7786 77.3047 52.2891 77.3047C50.9453 77.3047 49.9453 76.7214 49.2891 75.5547C48.7422 74.5807 48.4688 73.2734 48.4688 71.6328C48.4688 70.362 48.6328 69.2708 48.9609 68.3594C49.5755 66.6615 50.6875 65.8125 52.2969 65.8125ZM52.2812 76.0234C53.0104 76.0234 53.5911 75.7005 54.0234 75.0547C54.4557 74.4089 54.6719 73.2057 54.6719 71.4453C54.6719 70.1745 54.5156 69.1302 54.2031 68.3125C53.8906 67.4896 53.2839 67.0781 52.3828 67.0781C51.5547 67.0781 50.9479 67.4688 50.5625 68.25C50.1823 69.026 49.9922 70.1719 49.9922 71.6875C49.9922 72.8281 50.1146 73.7448 50.3594 74.4375C50.7344 75.4948 51.375 76.0234 52.2812 76.0234ZM63.3047 74.1484C63.3984 74.9505 63.7708 75.5052 64.4219 75.8125C64.7552 75.9688 65.1406 76.0469 65.5781 76.0469C66.4115 76.0469 67.0286 75.7812 67.4297 75.25C67.8307 74.7188 68.0312 74.1302 68.0312 73.4844C68.0312 72.7031 67.7917 72.099 67.3125 71.6719C66.8385 71.2448 66.2682 71.0312 65.6016 71.0312C65.1172 71.0312 64.7005 71.125 64.3516 71.3125C64.0078 71.5 63.7135 71.7604 63.4688 72.0938L62.25 72.0234L63.1016 66H68.9141V67.3594H64.1562L63.6797 70.4688C63.9401 70.2708 64.1875 70.1224 64.4219 70.0234C64.8385 69.8516 65.3203 69.7656 65.8672 69.7656C66.8932 69.7656 67.763 70.0964 68.4766 70.7578C69.1901 71.4193 69.5469 72.2578 69.5469 73.2734C69.5469 74.3307 69.2188 75.263 68.5625 76.0703C67.9115 76.8776 66.8698 77.2812 65.4375 77.2812C64.526 77.2812 63.7188 77.026 63.0156 76.5156C62.3177 76 61.9271 75.2109 61.8438 74.1484H63.3047ZM78.6016 66V67.2266C78.2422 67.5755 77.763 68.1823 77.1641 69.0469C76.5703 69.9115 76.0443 70.8438 75.5859 71.8438C75.1328 72.8177 74.7891 73.7057 74.5547 74.5078C74.4036 75.0234 74.2083 75.8542 73.9688 77H72.4141C72.7682 74.8646 73.5495 72.7396 74.7578 70.625C75.4714 69.3854 76.2214 68.3151 77.0078 67.4141H70.8203V66H78.6016ZM81.1172 74.1484C81.2109 74.9505 81.5833 75.5052 82.2344 75.8125C82.5677 75.9688 82.9531 76.0469 83.3906 76.0469C84.224 76.0469 84.8411 75.7812 85.2422 75.25C85.6432 74.7188 85.8438 74.1302 85.8438 73.4844C85.8438 72.7031 85.6042 72.099 85.125 71.6719C84.651 71.2448 84.0807 71.0312 83.4141 71.0312C82.9297 71.0312 82.513 71.125 82.1641 71.3125C81.8203 71.5 81.526 71.7604 81.2812 72.0938L80.0625 72.0234L80.9141 66H86.7266V67.3594H81.9688L81.4922 70.4688C81.7526 70.2708 82 70.1224 82.2344 70.0234C82.651 69.8516 83.1328 69.7656 83.6797 69.7656C84.7057 69.7656 85.5755 70.0964 86.2891 70.7578C87.0026 71.4193 87.3594 72.2578 87.3594 73.2734C87.3594 74.3307 87.0312 75.263 86.375 76.0703C85.724 76.8776 84.6823 77.2812 83.25 77.2812C82.3385 77.2812 81.5312 77.026 80.8281 76.5156C80.1302 76 79.7396 75.2109 79.6562 74.1484H81.1172ZM93.3359 73.0391V67.9688L89.75 73.0391H93.3359ZM93.3594 77V74.2656H88.4531V72.8906L93.5781 65.7812H94.7656V73.0391H96.4141V74.2656H94.7656V77H93.3594ZM101.281 65.8125C102.729 65.8125 103.776 66.4089 104.422 67.6016C104.922 68.5234 105.172 69.7865 105.172 71.3906C105.172 72.9115 104.945 74.1693 104.492 75.1641C103.836 76.5911 102.763 77.3047 101.273 77.3047C99.9297 77.3047 98.9297 76.7214 98.2734 75.5547C97.7266 74.5807 97.4531 73.2734 97.4531 71.6328C97.4531 70.362 97.6172 69.2708 97.9453 68.3594C98.5599 66.6615 99.6719 65.8125 101.281 65.8125ZM101.266 76.0234C101.995 76.0234 102.576 75.7005 103.008 75.0547C103.44 74.4089 103.656 73.2057 103.656 71.4453C103.656 70.1745 103.5 69.1302 103.188 68.3125C102.875 67.4896 102.268 67.0781 101.367 67.0781C100.539 67.0781 99.9323 67.4688 99.5469 68.25C99.1667 69.026 98.9766 70.1719 98.9766 71.6875C98.9766 72.8281 99.099 73.7448 99.3438 74.4375C99.7188 75.4948 100.359 76.0234 101.266 76.0234ZM114.227 66V67.2266C113.867 67.5755 113.388 68.1823 112.789 69.0469C112.195 69.9115 111.669 70.8438 111.211 71.8438C110.758 72.8177 110.414 73.7057 110.18 74.5078C110.029 75.0234 109.833 75.8542 109.594 77H108.039C108.393 74.8646 109.174 72.7396 110.383 70.625C111.096 69.3854 111.846 68.3151 112.633 67.4141H106.445V66H114.227ZM119.094 65.8125C120.542 65.8125 121.589 66.4089 122.234 67.6016C122.734 68.5234 122.984 69.7865 122.984 71.3906C122.984 72.9115 122.758 74.1693 122.305 75.1641C121.648 76.5911 120.576 77.3047 119.086 77.3047C117.742 77.3047 116.742 76.7214 116.086 75.5547C115.539 74.5807 115.266 73.2734 115.266 71.6328C115.266 70.362 115.43 69.2708 115.758 68.3594C116.372 66.6615 117.484 65.8125 119.094 65.8125ZM119.078 76.0234C119.807 76.0234 120.388 75.7005 120.82 75.0547C121.253 74.4089 121.469 73.2057 121.469 71.4453C121.469 70.1745 121.312 69.1302 121 68.3125C120.688 67.4896 120.081 67.0781 119.18 67.0781C118.352 67.0781 117.745 67.4688 117.359 68.25C116.979 69.026 116.789 70.1719 116.789 71.6875C116.789 72.8281 116.911 73.7448 117.156 74.4375C117.531 75.4948 118.172 76.0234 119.078 76.0234Z" fill="white"/>
<path d="M7.12427 2.23574L8.1106 1.92041C9.03644 1.62524 10.0237 2.10282 10.4206 3.03599L11.208 4.89499C11.5509 5.70441 11.3611 6.65682 10.7369 7.24899L9.00069 8.89716C9.10702 9.88349 9.43885 10.8542 9.99435 11.8094C10.5222 12.7336 11.23 13.5425 12.0761 14.1882L14.1615 13.4915C14.9526 13.2284 15.8133 13.5318 16.2973 14.2441L17.4276 15.9032C17.9913 16.7319 17.8905 17.8741 17.1911 18.5762L16.4413 19.3288C15.6951 20.0777 14.629 20.35 13.6436 20.042C11.3162 19.316 9.17669 17.1609 7.22419 13.5767C5.26894 9.98707 4.57869 6.94007 5.15435 4.43941C5.39635 3.38707 6.14527 2.54832 7.12427 2.23574Z" fill="white"/>
</svg>
