<svg width="115" height="25" viewBox="0 0 115 25" fill="none" xmlns="http://www.w3.org/2000/svg">
<path d="M13.3731 18.1231V13.0006H15.1013L15.3581 10.995H13.3731V9.71748C13.3731 9.13873 13.5344 8.74248 14.365 8.74248H15.4175V6.95436C14.9054 6.89948 14.3907 6.87298 13.8756 6.87498C12.3481 6.87498 11.2994 7.80748 11.2994 9.51936V10.9912H9.58252V12.9969H11.3031V18.1231H13.3731Z" fill="white"/>
<g clip-path="url(#clip0_197_869)">
<path fill-rule="evenodd" clip-rule="evenodd" d="M70.3547 6.62184C71.039 6.59034 71.2572 6.58334 73.0002 6.58334C74.7432 6.58334 74.9613 6.59093 75.645 6.62184C76.3287 6.65276 76.7953 6.76184 77.2037 6.91993C77.6312 7.08151 78.0192 7.33409 78.34 7.66076C78.6667 7.98101 78.9187 8.36834 79.0797 8.79651C79.2383 9.20484 79.3468 9.67151 79.3783 10.354C79.4098 11.0394 79.4168 11.2576 79.4168 13C79.4168 14.743 79.4092 14.9612 79.3783 15.6454C79.3474 16.3279 79.2383 16.7946 79.0797 17.2029C78.9187 17.6312 78.6662 18.0191 78.34 18.3398C78.0192 18.6665 77.6312 18.9185 77.2037 19.0795C76.7953 19.2382 76.3287 19.3467 75.6462 19.3782C74.9613 19.4097 74.7432 19.4167 73.0002 19.4167C71.2572 19.4167 71.039 19.4091 70.3547 19.3782C69.6722 19.3473 69.2056 19.2382 68.7972 19.0795C68.369 18.9185 67.9811 18.6661 67.6603 18.3398C67.3339 18.0194 67.0813 17.6316 66.9201 17.2035C66.762 16.7952 66.6535 16.3285 66.622 15.646C66.5905 14.9606 66.5835 14.7424 66.5835 13C66.5835 11.257 66.5911 11.0388 66.622 10.3552C66.6529 9.67151 66.762 9.20484 66.9201 8.79651C67.0815 8.36839 67.3343 7.98061 67.6609 7.66018C67.9812 7.3338 68.3688 7.08119 68.7967 6.91993C69.205 6.76184 69.6717 6.65334 70.3542 6.62184H70.3547ZM75.5931 7.77684C74.9164 7.74593 74.7134 7.73951 73.0002 7.73951C71.2869 7.73951 71.0839 7.74593 70.4072 7.77684C69.7813 7.80543 69.4418 7.90984 69.2155 7.99793C68.9162 8.11459 68.7022 8.25284 68.4776 8.47743C68.2647 8.68454 68.1009 8.93668 67.9981 9.21534C67.91 9.44168 67.8056 9.78118 67.777 10.4071C67.7461 11.0838 67.7397 11.2868 67.7397 13C67.7397 14.7133 67.7461 14.9163 67.777 15.5929C67.8056 16.2188 67.91 16.5583 67.9981 16.7847C68.1007 17.0629 68.2647 17.3155 68.4776 17.5226C68.6847 17.7355 68.9372 17.8994 69.2155 18.0021C69.4418 18.0902 69.7813 18.1946 70.4072 18.2232C71.0839 18.2541 71.2863 18.2605 73.0002 18.2605C74.714 18.2605 74.9164 18.2541 75.5931 18.2232C76.219 18.1946 76.5585 18.0902 76.7848 18.0021C77.0841 17.8854 77.2982 17.7472 77.5227 17.5226C77.7357 17.3155 77.8996 17.0629 78.0022 16.7847C78.0903 16.5583 78.1947 16.2188 78.2233 15.5929C78.2542 14.9163 78.2607 14.7133 78.2607 13C78.2607 11.2868 78.2542 11.0838 78.2233 10.4071C78.1947 9.78118 78.0903 9.44168 78.0022 9.21534C77.8856 8.91609 77.7473 8.70201 77.5227 8.47743C77.3156 8.26455 77.0635 8.10072 76.7848 7.99793C76.5585 7.90984 76.219 7.80543 75.5931 7.77684ZM72.1806 14.9781C72.6383 15.1686 73.148 15.1943 73.6225 15.0508C74.0971 14.9074 74.5071 14.6035 74.7826 14.1913C75.0581 13.7791 75.1819 13.284 75.1329 12.7907C75.0839 12.2973 74.8651 11.8362 74.5139 11.4863C74.2901 11.2625 74.0194 11.0912 73.7214 10.9847C73.4233 10.8781 73.1054 10.839 72.7905 10.87C72.4755 10.9011 72.1713 11.0016 71.8999 11.1643C71.6284 11.3271 71.3964 11.5479 71.2206 11.8111C71.0447 12.0742 70.9294 12.3731 70.883 12.6862C70.8365 12.9992 70.86 13.3187 70.9518 13.6216C71.0436 13.9244 71.2014 14.2032 71.4139 14.4378C71.6264 14.6723 71.8882 14.8569 72.1806 14.9781ZM70.668 10.6678C70.9743 10.3616 71.3378 10.1186 71.738 9.95289C72.1382 9.78714 72.567 9.70183 73.0002 9.70183C73.4333 9.70183 73.8622 9.78714 74.2623 9.95289C74.6625 10.1186 75.0261 10.3616 75.3323 10.6678C75.6386 10.9741 75.8815 11.3377 76.0473 11.7379C76.213 12.138 76.2983 12.5669 76.2983 13C76.2983 13.4331 76.213 13.862 76.0473 14.2622C75.8815 14.6623 75.6386 15.0259 75.3323 15.3322C74.7138 15.9507 73.8749 16.2982 73.0002 16.2982C72.1254 16.2982 71.2865 15.9507 70.668 15.3322C70.0495 14.7136 69.702 13.8747 69.702 13C69.702 12.1253 70.0495 11.2864 70.668 10.6678ZM77.0298 10.193C77.1057 10.1214 77.1665 10.0353 77.2085 9.93983C77.2505 9.84433 77.273 9.74138 77.2745 9.63705C77.276 9.53273 77.2566 9.42916 77.2174 9.33248C77.1781 9.2358 77.1199 9.14798 77.0461 9.0742C76.9724 9.00043 76.8845 8.9422 76.7879 8.90298C76.6912 8.86376 76.5876 8.84433 76.4833 8.84585C76.379 8.84737 76.276 8.86981 76.1805 8.91183C76.085 8.95386 75.9989 9.01462 75.9273 9.09051C75.7881 9.23811 75.7119 9.43416 75.7148 9.63705C75.7178 9.83994 75.7997 10.0337 75.9432 10.1772C76.0866 10.3206 76.2804 10.4026 76.4833 10.4055C76.6862 10.4085 76.8822 10.3322 77.0298 10.193Z" fill="white"/>
</g>
<g clip-path="url(#clip1_197_869)">
<path fill-rule="evenodd" clip-rule="evenodd" d="M105.433 13.7902C105.272 13.7095 104.48 13.3206 104.333 13.2665C104.186 13.2128 104.078 13.1863 103.971 13.3477C103.863 13.508 103.555 13.871 103.461 13.9782C103.367 14.086 103.273 14.099 103.113 14.0188C102.952 13.9376 102.433 13.768 101.818 13.2199C101.34 12.793 101.016 12.266 100.923 12.1046C100.829 11.9437 100.912 11.8565 100.993 11.7763C101.066 11.7043 101.154 11.5884 101.235 11.4947C101.315 11.4004 101.342 11.3332 101.396 11.2255C101.45 11.1182 101.423 11.0245 101.382 10.9438C101.342 10.8631 101.02 10.0706 100.886 9.74833C100.755 9.4347 100.623 9.47749 100.524 9.47207C100.43 9.46774 100.323 9.46666 100.215 9.46666C100.108 9.46666 99.9336 9.50674 99.7863 9.66816C99.6384 9.82903 99.2229 10.2185 99.2229 11.011C99.2229 11.8029 99.7993 12.5682 99.88 12.676C99.9607 12.7833 101.015 14.4094 102.629 15.1065C103.014 15.2722 103.314 15.3714 103.547 15.445C103.933 15.568 104.284 15.5507 104.561 15.509C104.87 15.4629 105.513 15.1195 105.648 14.7436C105.781 14.3677 105.781 14.0454 105.741 13.9782C105.701 13.911 105.594 13.871 105.433 13.7902H105.433ZM102.496 17.8002H102.494C101.535 17.8004 100.594 17.5426 99.7684 17.0538L99.5734 16.9379L97.5465 17.4698L98.0876 15.4938L97.9603 15.2912C97.4241 14.4377 97.1404 13.45 97.1418 12.442C97.1429 9.48995 99.5447 7.0882 102.498 7.0882C103.928 7.0882 105.273 7.64612 106.284 8.65795C106.782 9.15443 107.177 9.74484 107.446 10.395C107.715 11.0452 107.852 11.7422 107.85 12.4458C107.849 15.3979 105.447 17.8002 102.496 17.8002ZM107.053 7.88933C106.456 7.28858 105.746 6.81224 104.964 6.48793C104.181 6.16361 103.342 5.99776 102.496 5.99999C98.9456 5.99999 96.0553 8.88978 96.0542 12.4415C96.0536 13.5768 96.3499 14.6851 96.9138 15.6617L96 19L99.4147 18.1041C100.359 18.6187 101.418 18.8884 102.494 18.8884H102.496C106.046 18.8884 108.937 15.9986 108.938 12.4464C108.94 11.5999 108.775 10.7613 108.452 9.97909C108.128 9.19689 107.653 8.4866 107.053 7.88933Z" fill="white"/>
</g>
<path d="M38.9067 8.19824C39.6116 8.19824 40.183 7.6268 40.183 6.9219C40.183 6.217 39.6116 5.64557 38.9067 5.64557C38.2018 5.64557 37.6304 6.217 37.6304 6.9219C37.6304 7.6268 38.2018 8.19824 38.9067 8.19824Z" fill="white"/>
<path d="M41.388 9.16542V16.2465H43.5866V12.7448C43.5866 11.8208 43.7604 10.9259 44.9061 10.9259C46.036 10.9259 46.05 11.9823 46.05 12.8031V16.2471H48.2498V12.3638C48.2498 10.4563 47.8391 8.99042 45.6096 8.99042C44.5392 8.99042 43.8217 9.57783 43.5283 10.1338H43.4985V9.16542H41.388ZM37.8052 9.16542H40.0073V16.2465H37.8052V9.16542Z" fill="white"/>
<rect x="0.5" y="0.5" width="24" height="24" rx="1.5" stroke="#D7D7D7"/>
<rect x="30.5" y="0.5" width="24" height="24" rx="1.5" stroke="#D7D7D7"/>
<rect x="60.5" y="0.5" width="24" height="24" rx="1.5" stroke="#D7D7D7"/>
<rect x="90.5" y="0.5" width="24" height="24" rx="1.5" stroke="#D7D7D7"/>
<defs>
<clipPath id="clip0_197_869">
<rect width="14" height="14" fill="white" transform="translate(66 6)"/>
</clipPath>
<clipPath id="clip1_197_869">
<rect width="13" height="13" fill="white" transform="translate(96 6)"/>
</clipPath>
</defs>
</svg>
