<svg width="20" height="20" viewBox="0 0 20 20" fill="none" xmlns="http://www.w3.org/2000/svg">
<g clip-path="url(#clip0_192_228)">
<path d="M1.01 0L0 1.01L1.77923 4.08692L2.93308 3.91769L9.97615 10.9615L9.37538 11.5385C9.06769 11.8462 9.06769 12.3123 9.37538 12.62L9.68769 12.9331C9.99538 13.2408 10.4662 13.2408 10.6969 12.9331L11.6108 13.8462C11.5338 14.3077 11.6108 14.8562 11.9954 15.2408L16.1538 19.3754C17 20.2215 18.3846 20.2215 19.2308 19.3754C20.2308 18.4523 20.2215 17.0723 19.3754 16.2262L15.2408 12.0669C14.8562 11.6823 14.3077 11.5285 13.8462 11.6823L12.8362 10.7692C13.0669 10.4615 13.0669 9.99077 12.8362 9.75923L12.5477 9.47154C12.4778 9.39862 12.3938 9.34059 12.3009 9.30095C12.2079 9.26131 12.108 9.24088 12.0069 9.24088C11.9059 9.24088 11.8059 9.26131 11.713 9.30095C11.62 9.34059 11.5361 9.39862 11.4662 9.47154L10.9615 9.97615L3.91846 2.93308L4.08615 1.77923L1.00923 0L1.01 0ZM16.01 0.0238462C14.4923 -0.102308 12.48 0.903846 11.5385 1.77846C10.38 2.93692 10.5692 4.45154 11.49 5.91385L9.85615 7.54846L11.01 8.84616C11.6254 8.30769 12.5331 8.30769 13.1485 8.84616L13.4615 9.15846L13.5338 9.23077L14.2069 8.55769C15.5977 9.37539 17.0454 9.49308 18.1492 8.38923C19.2262 7.38923 20.3938 4.92308 19.8554 3.46154L17.6923 5.69692C17.3846 6.00462 16.9185 6.00462 16.6108 5.69692L14.3746 3.46154C14.3017 3.39161 14.2437 3.30766 14.204 3.21472C14.1644 3.12179 14.144 3.0218 14.144 2.92077C14.144 2.81974 14.1644 2.71975 14.204 2.62682C14.2437 2.53388 14.3017 2.44993 14.3746 2.38L16.6115 0.144615C16.4192 0.0769231 16.2269 0.0423077 16.01 0.0238462ZM7.54846 9.61539L4.75923 12.4038C4.45951 12.3373 4.15317 12.305 3.84615 12.3077C1.69231 12.3077 0 14 0 16.1538C0 18.3077 1.69231 20 3.84615 20C6 20 7.69231 18.3077 7.69231 16.1538C7.69231 15.7592 7.63 15.38 7.52385 15.0238L9.15846 13.3892L8.91846 13.0769C8.30308 12.4615 8.30769 11.5292 8.84615 10.9131L7.54769 9.61539H7.54846ZM13.51 13.1254C13.6062 13.1254 13.6969 13.1438 13.7738 13.2215L18.3177 17.7646C18.4715 17.9185 18.4715 18.1631 18.3177 18.3169C18.1638 18.4708 17.9177 18.4708 17.7638 18.3169L13.2215 13.7738C13.0677 13.62 13.0677 13.3754 13.2215 13.2215C13.2985 13.1446 13.4138 13.1254 13.51 13.1254ZM4.37538 14.1577L5.84154 15.6246L5.31231 17.6192L3.31769 18.1485L1.85077 16.6815L2.38 14.6869L4.37538 14.1577Z" fill="#435072"/>
</g>
<defs>
<clipPath id="clip0_192_228">
<rect width="20" height="20" fill="white"/>
</clipPath>
</defs>
</svg>
