<svg width="189" height="26" viewBox="0 0 189 26" fill="none" xmlns="http://www.w3.org/2000/svg">
<g clip-path="url(#clip0_192_491)">
<path d="M12.4289 25.5255L5.62902 9.25182H5.53896L2.92709 25.0037H0L4.63831 0.142334L12.4289 18.9307L20.1744 0.142334L24.8127 25.0037H21.8856L19.2287 9.25182H19.1837L12.4289 25.5255Z" fill="#D71920"/>
<path d="M62.2794 11.4817L71.8713 1.13867H75.5639L65.3866 11.8613L75.744 25.0036H71.9613L63.4052 13.9014L62.2794 15.0401V25.0036H59.4424V1.13867H62.2794V11.4817Z" fill="#D71920"/>
<path d="M82.9941 25.0036V1.13867H95.1528V3.8905H85.7861V10.5328H94.8826V13.2847H85.7861V22.2993H95.1528V25.0036H82.9941Z" fill="#D71920"/>
<path d="M106.951 1.13867V22.2993H113.841V25.0036H104.159V1.13867H106.951Z" fill="#D71920"/>
<path d="M133.52 4.27L131.269 5.69336C130.413 4.22256 129.197 3.46343 127.621 3.46343C126.675 3.46343 125.82 3.7481 125.054 4.36489C124.244 5.02912 123.838 5.83569 123.838 6.83204C123.838 8.2554 124.874 9.39409 126.991 10.2955L128.612 10.9598C130.413 11.7189 131.764 12.5729 132.62 13.5218C133.701 14.7554 134.241 16.2737 134.241 18.124C134.241 20.3065 133.565 22.062 132.169 23.4853C130.773 24.8612 129.062 25.5729 126.991 25.5729C125.144 25.5729 123.613 24.9561 122.307 23.6751C121.001 22.3941 120.236 20.8284 120.011 18.8831L122.893 18.2664C122.848 19.5948 123.253 20.6386 124.109 21.4926C124.964 22.3466 126 22.7737 127.261 22.7737C128.477 22.7737 129.467 22.3466 130.233 21.4452C131.044 20.5437 131.404 19.4525 131.404 18.1715C131.404 16.9853 130.999 16.0364 130.188 15.2299C129.648 14.708 128.747 14.1861 127.486 13.6167L125.91 12.905C124.379 12.2408 123.253 11.4817 122.488 10.6751C121.497 9.63132 121.001 8.35029 121.001 6.83204C121.001 4.98168 121.677 3.46343 123.073 2.2773C124.334 1.18606 125.91 0.66416 127.711 0.66416C130.278 0.616715 132.214 1.85029 133.52 4.27Z" fill="#D71920"/>
<path fill-rule="evenodd" clip-rule="evenodd" d="M151.263 6.68978L143.472 25.0037H140.455L151.263 0.142334L162.071 25.0037H159.053L151.263 6.68978Z" fill="#D71920"/>
<path d="M169.186 25.0037V0L186.208 18.7883V1.13869H189V26L172.023 7.21168V25.0037H169.186Z" fill="#D71920"/>
<path fill-rule="evenodd" clip-rule="evenodd" d="M161.531 8.3029C160.63 8.3029 159.819 7.97078 159.189 7.30655C158.558 6.64232 158.243 5.83575 158.243 4.8394C158.243 3.89049 158.558 3.03648 159.189 2.41969C159.819 1.75546 160.585 1.42334 161.531 1.42334C162.431 1.42334 163.242 1.75546 163.872 2.41969C164.503 3.08392 164.818 3.89049 164.818 4.8394C164.818 5.7883 164.503 6.64232 163.872 7.30655C163.197 7.97078 162.431 8.3029 161.531 8.3029ZM161.531 1.99268C160.765 1.99268 160.135 2.27735 159.594 2.8467C159.054 3.41604 158.784 4.08027 158.784 4.88684C158.784 5.69341 159.054 6.35765 159.594 6.92699C160.135 7.49633 160.765 7.781 161.531 7.781C162.296 7.781 162.927 7.49633 163.467 6.92699C164.007 6.35765 164.277 5.69341 164.277 4.88684C164.277 4.08027 164.007 3.41604 163.467 2.8467C162.927 2.27735 162.296 1.99268 161.531 1.99268ZM162.071 5.02918L163.017 6.8321H162.431L161.485 5.02918H160.765V6.8321H160.225V2.94159H161.756C162.611 2.94159 163.017 3.2737 163.017 3.98538C163.017 4.3175 162.927 4.55473 162.746 4.74451C162.611 4.93429 162.386 5.02918 162.071 5.02918ZM161.711 3.51093H160.81V4.45984H161.35C161.801 4.45984 162.026 4.45984 162.116 4.41239C162.386 4.36494 162.521 4.22261 162.521 3.98538C162.521 3.74816 162.431 3.60582 162.296 3.55838C162.161 3.55838 161.981 3.51093 161.711 3.51093Z" fill="#D71920"/>
<path fill-rule="evenodd" clip-rule="evenodd" d="M41.5646 6.68978L33.774 25.0037H30.7568L41.5646 0.142334L52.3723 25.0037H49.3551L41.5646 6.68978Z" fill="#D71920"/>
</g>
<defs>
<clipPath id="clip0_192_491">
<rect width="189" height="26" fill="white"/>
</clipPath>
</defs>
</svg>
