<svg width="153" height="38" viewBox="0 0 153 38" fill="none" xmlns="http://www.w3.org/2000/svg">
<g clip-path="url(#clip0_192_480)">
<path d="M151.478 29.0489L150.718 27.1066V29.0489H150.295V26.2622H150.802L151.647 28.3733L152.493 26.2622H153V29.0489H152.577V27.1066L151.816 29.0489H151.478Z" fill="#4D4D4D"/>
<path d="M147.759 26.2622H150.042V26.6844H149.112V29.0489H148.689V26.6844H147.759V26.2622Z" fill="#4D4D4D"/>
<path d="M145.477 11.0623L141.166 23.1378L136.855 11.0623H132.206L139.053 29.0489H143.279L150.041 11.0623H145.477Z" fill="#4D4D4D"/>
<path d="M125.105 29.0489H129.247V11.0623H125.105V29.0489Z" fill="#4D4D4D"/>
<path d="M106.508 14.8623H112.003V29.0489H116.145V14.8623H121.724V11.0623H106.508V14.8623Z" fill="#4D4D4D"/>
<path d="M104.057 17.1423C104.057 19.76 102.367 21.9556 100.084 22.8L104.564 29.0489H99.7461L95.7731 23.3067H93.9135V29.0489H89.7715V11.0623H98.0555C101.352 11.0623 104.057 13.7645 104.057 17.1423ZM97.3792 19.6756C98.7317 19.6756 99.7461 18.5778 99.7461 17.3111C99.7461 16.0445 98.6472 14.9467 97.3792 14.9467H93.9135V19.76H97.3792V19.6756Z" fill="#4D4D4D"/>
<path d="M72.02 29.0489H85.3758V25.2489H76.162V21.7023H83.7698V18.0711H76.162V14.8623H85.3758V11.0623H72.02V29.0489Z" fill="#4D4D4D"/>
<path d="M60.1858 23.1378L55.8748 11.0623H51.2256L57.988 29.0489H62.2145L69.0615 11.0623H64.4969L60.1858 23.1378Z" fill="#4D4D4D"/>
<path d="M38.0387 11.0622L20.1182 28.9644L29.0785 38C35.6718 34.7067 40.1519 27.9511 40.1519 20.0978C40.1519 16.8044 39.3912 13.7644 38.0387 11.0622ZM0 20.0978C0 27.9511 4.48011 34.7067 11.0735 38L20.1182 28.9644L2.11326 11.0622C0.760773 13.7644 0 16.8044 0 20.0978ZM20.1182 18.8311L27.895 11.0622H38.0387C34.742 4.47556 27.895 0 20.1182 0C12.3414 0 5.40994 4.47556 2.11326 11.0622H12.2569L20.1182 18.8311Z" fill="#4D4D4D"/>
</g>
<defs>
<clipPath id="clip0_192_480">
<rect width="153" height="38" fill="white"/>
</clipPath>
</defs>
</svg>
